<?xml version="1.0" encoding="utf-8"?>
<!-- Generator: Adobe Illustrator 22.0.1, SVG Export Plug-In . SVG Version: 6.00 Build 0)  -->
<svg version="1.1" id="Layer_1" xmlns="http://www.w3.org/2000/svg" xmlns:xlink="http://www.w3.org/1999/xlink" x="0px" y="0px"
	 viewBox="0 0 20 20" style="enable-background:new 0 0 20 20;" xml:space="preserve">
<style type="text/css">
	.st0{fill:#FFFFFF;stroke:#FFFFFF;stroke-width:0.5;}
</style>
<path class="st0" d="M18,5.6H17V1H3v4.7H2c-0.8,0-1.5,0.7-1.5,1.5v8.8c0,0.8,0.7,1.5,1.5,1.5h4v1.2H4.8V19h10.4v-0.6H14v-1.2h4
	c0.8,0,1.5-0.7,1.5-1.5V7.1C19.5,6.3,18.8,5.6,18,5.6z M12.6,10.1L13,9.5l-1.2-1.1l-0.7,0.3L10.8,8H9.2L8.9,8.7L8.2,8.3L7,9.5
	l0.4,0.7l-0.8,0.2v0.5H3.6v-7h12.9v7h-3.1v-0.5L12.6,10.1z M12.2,12.8l-0.6,0.5L11,13L10.9,13c0,0-0.1,0-0.1,0l-0.1,0l-0.2,0.7H9.6
	l-0.2-0.7l-0.1,0c0,0-0.1,0-0.1,0L9,13l-0.7,0.3l-0.6-0.5l0.3-0.6L8,12c0,0,0-0.1,0-0.1l-0.1-0.1l-0.7-0.2v-0.7l0.7-0.2L8,10.4
	c0,0,0-0.1,0-0.1l0.1-0.1L7.8,9.6L8.3,9L9,9.4l0.1-0.1c0,0,0.1,0,0.1,0l0.1,0l0.2-0.7h0.8l0.2,0.7l0.1,0c0,0,0.1,0,0.1,0L11,9.4
	L11.7,9l0.6,0.5l-0.3,0.6l0.1,0.1c0,0,0,0.1,0,0.1l0.1,0.1l0.7,0.2v0.7l-0.7,0.2L12,11.9c0,0,0,0.1,0,0.1l-0.1,0.1L12.2,12.8z
	 M16.4,1.5v1.8H3.6V1.5H16.4z M2,6.2H3v5.3h3.7V12l0.8,0.2L7,12.9L8.2,14l0.7-0.3l0.3,0.7h1.7l0.3-0.7l0.7,0.3l1.2-1.1l-0.4-0.7
	l0.8-0.2v-0.5H17V6.2H18c0.5,0,0.9,0.4,0.9,0.9V15H1.1V7.1C1.1,6.6,1.5,6.2,2,6.2z M13.4,18.5H6.6v-1.2h6.7V18.5z M18,16.7H2
	c-0.5,0-0.9-0.4-0.9-0.9v-0.3h17.8v0.3C18.9,16.3,18.5,16.7,18,16.7z"/>
<path class="st0" d="M4.4,2.3h0.2v0.1H4.4V2.3z"/>
<path class="st0" d="M5.6,2.3h0.2v0.1H5.6V2.3z"/>
<path class="st0" d="M6.9,2.3H7v0.1H6.9V2.3z"/>
<path class="st0" d="M8.7,11.2c0-0.7,0.6-1.2,1.3-1.2c0.7,0,1.3,0.6,1.3,1.2c0,0.7-0.6,1.2-1.3,1.2C9.3,12.4,8.7,11.8,8.7,11.2z
	 M8.9,11.2c0,0.6,0.5,1.1,1.1,1.1c0.6,0,1.1-0.5,1.1-1.1c0-0.6-0.5-1.1-1.1-1.1C9.4,10.1,8.9,10.5,8.9,11.2z"/>
<path class="st0" d="M4.4,4.7h5.7v0.1H4.4V4.7z"/>
<path class="st0" d="M4.4,5.8h5.7V6H4.4V5.8z"/>
<path class="st0" d="M4.4,7h5.7v0.1H4.4V7z"/>
</svg>
