<?xml version="1.0" encoding="utf-8"?>
<!-- Generator: Adobe Illustrator 22.0.1, SVG Export Plug-In . SVG Version: 6.00 Build 0)  -->
<svg version="1.1" id="Layer_1" xmlns="http://www.w3.org/2000/svg" xmlns:xlink="http://www.w3.org/1999/xlink" x="0px" y="0px"
	 viewBox="0 0 20 20" style="enable-background:new 0 0 20 20;" xml:space="preserve">
<style type="text/css">
	.st0{fill:#FFFFFF;stroke:#FFFFFF;}
</style>
<path class="st0" d="M14.5,7.2c0,0-12.3,0-12.3,0l2.6-2.9C5,4.1,5,3.9,4.8,3.7c-0.2-0.2-0.5-0.2-0.6,0L1.3,7c-0.4,0.4-0.4,1,0,1.4
	l2.9,3.3c0.1,0.1,0.2,0.2,0.3,0.2c0.1,0,0.2,0,0.3-0.1c0.2-0.2,0.2-0.5,0-0.6L2.3,8.2c0,0,12.2,0,12.3,0c2,0,3.6,1.6,3.6,3.6
	c0,2-1.6,3.6-3.6,3.6h-2.2c-0.3,0-0.5,0.2-0.5,0.5c0,0.3,0.2,0.5,0.5,0.5h2.2c2.5,0,4.5-2,4.5-4.5C19,9.3,17,7.2,14.5,7.2z"/>
</svg>
