<svg width="95" height="97" viewBox="0 0 95 97" fill="none" xmlns="http://www.w3.org/2000/svg">
<path d="M15.8346 70.9846H12.668V78.9357H15.8346V70.9846Z" fill="#2F3D57"/>
<path d="M72.3992 50.9181C68.297 50.718 64.211 51.592 60.5464 53.4529C57.6393 51.9274 54.4374 51.0525 51.1611 50.8847C49.939 50.8251 48.7147 50.8585 47.4986 50.9848V50.8847H24.8261C10.6718 50.8847 0 61.1393 0 74.7379V82.689C0.00905329 90.5896 6.38358 96.9919 14.2499 96.9999H59.4992V96.8171C60.2436 96.9363 60.995 96.9989 61.7475 96.9999H80.7473C88.6136 96.9919 94.9871 90.5896 94.9972 82.689V75.3744C95.1923 62.4628 85.2327 51.6859 72.3992 50.9181ZM26.9154 93.8195C20.7984 93.8114 15.8412 88.8316 15.8332 82.688H12.6666C12.6676 87.0141 14.6201 91.1079 17.9778 93.8195H14.2489C8.13086 93.8114 3.17469 88.8327 3.16664 82.689V74.7379C3.16664 62.972 12.4533 54.0914 24.7768 54.0652C21.058 56.106 17.9668 59.1308 15.8412 62.8114L18.5804 64.4016C22.5699 57.7861 29.7934 53.8368 37.4917 54.0652H38.1566C37.0803 54.6916 36.0532 55.3988 35.0845 56.1858C29.4886 60.7039 26.2395 67.5284 26.2505 74.7379V82.689C26.2545 84.6005 26.6358 86.4928 27.3731 88.2548C28.3006 90.433 29.7521 92.3445 31.596 93.8205H26.9154V93.8195ZM41.1643 93.8195H40.4994C36.0442 93.8215 32.0215 91.1422 30.2913 87.0171C29.7179 85.6472 29.4212 84.1752 29.4172 82.689V74.7379C29.3779 63.3458 38.5409 54.0803 49.8856 54.0399C50.2578 54.0379 50.631 54.047 51.0022 54.0652C53.167 54.1713 55.2985 54.641 57.3083 55.4533C56.9744 55.6938 56.6324 55.9302 56.3175 56.1878C55.5409 56.8304 54.8036 57.5194 54.1125 58.2539C53.6649 57.8134 53.0885 57.5275 52.4678 57.4366C51.9267 57.3547 51.3794 57.3012 50.8302 57.2779C49.2459 57.1951 47.6595 57.3547 46.1235 57.7558C38.1013 59.8865 32.5335 67.2001 32.5858 75.5341V82.69C32.5898 87.0798 36.1317 90.635 40.5014 90.6401C43.1248 90.6401 45.2524 88.5043 45.2524 85.8694V82.1657C45.2544 81.1321 44.9214 80.1269 44.3018 79.3015C42.2406 76.5302 42.14 72.7547 44.0483 69.8744C45.4314 67.8063 47.3336 66.1433 49.5627 65.0512C48.2047 68.0993 47.5026 71.3999 47.4996 74.739V82.69C47.4956 84.6025 47.8768 86.4968 48.6212 88.2558C49.5305 90.4269 50.961 92.3384 52.7857 93.8215H41.1643V93.8195ZM41.7829 81.214L41.7779 81.2231C41.9791 81.4948 42.0867 81.8262 42.0827 82.1657V85.8694C42.0847 86.2968 41.9127 86.706 41.6079 87.003C41.3152 87.3021 40.9158 87.4667 40.4984 87.4597C37.8759 87.4597 35.7494 85.3229 35.7494 82.689V75.5331C35.6901 68.6499 40.2791 62.5972 46.9031 60.8231C47.9251 60.5574 48.9763 60.423 50.0295 60.425C50.2458 60.425 50.461 60.425 50.6783 60.4382C51.0917 60.4735 51.5072 60.4826 51.9226 60.4604L48.7751 61.8738C45.7825 63.2084 43.2305 65.3715 41.4178 68.1084C38.7642 72.1152 38.909 77.3637 41.7829 81.214ZM91.8295 75.3734V82.688C91.8215 88.8316 86.8633 93.8114 80.7463 93.8195H61.7475C61.0976 93.8235 60.4478 93.77 59.806 93.6609C56.0992 93.0052 52.9819 90.4986 51.5313 87.0101C50.9539 85.6431 50.6592 84.1732 50.6642 82.689V74.7379C50.6501 63.3377 59.8433 54.0854 71.1941 54.0692C71.5461 54.0692 71.8972 54.0793 72.2493 54.0965C83.3929 54.7855 92.0207 64.1621 91.8295 75.3734Z" fill="#2F3D57"/>
<path d="M86.5717 66.8557C86.0617 65.7949 84.9673 65.1463 83.7974 65.2079C82.6365 65.2311 81.5954 65.9262 81.1216 66.9911L79.3009 71.0303C79.2084 71.2343 79.1601 71.4596 79.1601 71.6839V76.3283C79.1601 78.9611 77.0346 81.0989 74.4101 81.0989C71.7917 81.1121 69.6732 83.2397 69.6602 85.8696V89.05C69.6602 89.9279 70.3693 90.6392 71.2425 90.6392H80.7424C85.1131 90.6341 88.654 87.0789 88.659 82.6891V75.3746C88.657 72.4073 87.9398 69.4845 86.5717 66.8557ZM85.4944 82.6891C85.4944 85.322 83.3678 87.4598 80.7444 87.4598H72.8278V85.8696C72.8268 85.4412 73.0038 85.031 73.3147 84.736C73.6024 84.441 73.9997 84.2763 74.4111 84.2793C78.7818 84.2743 82.3227 80.719 82.3277 76.3293V72.0345L83.8859 68.5762C84.9381 70.6888 85.4883 73.0155 85.4944 75.3746V82.6891Z" fill="#2F3D57"/>
<path d="M76.2696 60.0502C76.0935 58.6995 75.0464 57.6306 73.7045 57.4335C73.1925 57.3497 72.6825 57.3123 72.0739 57.2759C70.4896 57.1941 68.9032 57.3537 67.3662 57.7528C59.344 59.8855 53.7762 67.1991 53.8285 75.5331V82.689C53.8335 87.0788 57.3754 90.6341 61.7451 90.6391C64.3635 90.626 66.482 88.4983 66.4951 85.8685V82.1647C66.4981 81.1312 66.1641 80.1249 65.5465 79.3005C64.4842 77.8911 63.9118 76.1716 63.9159 74.4026C63.9118 72.7942 64.3856 71.2221 65.2759 69.8845C66.7687 67.6497 68.859 65.8857 71.3064 64.7956L74.4579 63.3812C75.7395 62.8083 76.4818 61.4444 76.2696 60.0502ZM70.0188 61.8779C67.0262 63.2145 64.4681 65.3735 62.6464 68.1094C59.9837 72.1142 60.1346 77.3739 63.0236 81.2191C63.2268 81.4929 63.3344 81.8242 63.3294 82.1657V85.8695C63.3304 86.2999 63.1544 86.709 62.8436 87.003C62.5549 87.3001 62.1585 87.4627 61.7461 87.4597C59.1227 87.4597 56.9961 85.3229 56.9961 82.689V75.5331C56.9368 68.6499 61.5258 62.5962 68.1498 60.8231C69.1758 60.5554 70.228 60.421 71.2873 60.425C71.5106 60.425 71.7339 60.425 71.9592 60.4402C72.3606 60.4735 72.766 60.4816 73.1693 60.4634L70.0188 61.8779Z" fill="#2F3D57"/>
<path d="M71.2461 68.3772C68.6246 68.3772 66.4961 70.513 66.4961 73.1478C66.4961 75.7827 68.6236 77.9185 71.2461 77.9185C73.8695 77.9185 75.997 75.7837 75.997 73.1478C75.997 70.513 73.8705 68.3772 71.2461 68.3772ZM71.2461 74.738C70.3729 74.738 69.6637 74.0268 69.6637 73.1478C69.6637 72.2699 70.3729 71.5576 71.2461 71.5576C72.1212 71.5576 72.8294 72.2699 72.8294 73.1478C72.8294 74.0258 72.1212 74.738 71.2461 74.738Z" fill="#2F3D57"/>
<path d="M78.081 13.3573C77.5529 12.6581 76.5591 12.5197 75.863 13.0512C75.7875 13.1077 75.7191 13.1714 75.6558 13.2401C73.5091 15.5789 72.3231 18.6462 72.3312 21.8266L72.3241 28.6229C72.3241 29.5019 71.615 30.2131 70.7408 30.2131C66.3731 30.2091 62.8292 33.7613 62.8242 38.148C62.8242 38.1531 62.8242 38.1581 62.8242 38.1642C62.8242 39.0422 63.5334 39.7544 64.4075 39.7544H73.9075C78.2772 39.7494 81.818 36.1931 81.8231 31.8033V24.4888C81.811 20.4688 80.4962 16.5619 78.081 13.3573ZM78.6574 31.8033C78.6574 34.4382 76.5309 36.574 73.9075 36.574H66.2604C66.9284 34.6645 68.725 33.3885 70.7398 33.3936C73.3633 33.3936 75.4898 31.2578 75.4898 28.6229V21.8175C75.4868 20.1596 75.9173 18.531 76.7401 17.0934C77.9895 19.3564 78.6494 21.9014 78.6564 24.4898V31.8033H78.6574Z" fill="#2F3D57"/>
<path d="M72.1941 8.70578C72.0362 8.35318 71.7555 8.0703 71.4075 7.90966C69.469 6.99837 67.3707 6.47807 65.2321 6.37805C63.6427 6.29823 62.0504 6.45887 60.5093 6.85491C52.4891 8.99271 46.9284 16.3133 46.9927 24.6473V31.8033C46.9978 36.192 50.5386 39.7493 54.9093 39.7543C57.5278 39.7412 59.6462 37.6135 59.6593 34.9837V31.2789C59.6613 30.2464 59.3273 29.2412 58.7087 28.4168C56.6385 25.6516 56.5319 21.874 58.4452 18.9967C59.9299 16.7629 62.0162 14.9979 64.4606 13.9088L71.3964 10.8082C72.1941 10.4475 72.5512 9.50695 72.1941 8.70578ZM63.1619 10.9961C60.1713 12.3297 57.6213 14.4898 55.8086 17.2246C53.146 21.2305 53.2958 26.4881 56.1808 30.3343C56.388 30.6051 56.4997 30.9364 56.4977 31.2779V34.9847C56.4977 35.4151 56.3206 35.8263 56.0108 36.1203C55.7201 36.4173 55.3218 36.581 54.9083 36.5749C52.2859 36.5749 50.1584 34.4392 50.1584 31.8043V24.6483C50.094 17.7662 54.677 11.7155 61.2949 9.93936C62.322 9.67062 63.3782 9.53726 64.4384 9.5413C64.6577 9.5413 64.876 9.5413 65.0983 9.55443C65.4594 9.57161 65.8145 9.60394 66.1676 9.64839L63.1619 10.9961Z" fill="#2F3D57"/>
<path d="M65.1526 0.0191957C64.377 -0.0030309 63.5994 0.0131339 62.8249 0.0666799V0H59.6592V0.182864H59.6291V0.0010103C59.609 0.0010103 58.8374 0.0171751 55.9876 0.0171751C55.9283 0.0141442 55.8679 0.0141442 55.8096 0.0171751C55.5259 0.0030309 55.2614 0.0010103 54.9837 0.0171751C54.8912 0.010103 54.7976 0.010103 54.7061 0.0171751H54.6679C54.0231 0.0333399 53.2847 0.0333399 52.4508 0.0171751H52.3241C51.9529 0 51.7366 0 51.7416 0V0.0161648C46.2815 0.030309 39.734 0.0323296 34.3251 0.0323296C20.4052 0.0323296 9.5 10.495 9.5 23.8532V31.8043C9.50805 39.7048 15.8836 46.1071 23.7499 46.1162H73.9081C81.7734 46.1081 88.1479 39.7048 88.157 31.8043V24.4897C88.5322 11.3517 78.2326 0.396038 65.1526 0.0191957ZM45.9154 42.9348C42.5505 42.9449 39.3658 41.4072 37.2715 38.7632L34.7989 40.7475C35.4397 41.5537 36.165 42.2861 36.9647 42.9348H34.8321C28.7141 42.9267 23.7579 37.9479 23.7489 31.8033H20.5822C20.5842 36.1304 22.5357 40.2231 25.8935 42.9348H23.7489C17.6309 42.9267 12.6737 37.9479 12.6656 31.8033V23.8522C12.6656 12.8207 21.3135 4.08667 32.6382 3.28954C28.9515 5.30509 25.8814 8.29053 23.7559 11.9246L26.495 13.5148C30.1324 7.55402 36.4325 3.74519 43.3804 3.30772C41.7197 4.28469 40.1816 5.45967 38.8005 6.80539L41.0155 9.08564C44.0474 6.11737 47.9101 4.15234 52.0887 3.45725C44.9829 7.77426 40.6453 15.5122 40.6574 23.8532V31.8043C40.6504 36.1385 42.6159 40.2373 45.9918 42.9358H45.9154V42.9348ZM84.9904 24.4887V31.8033C84.9823 37.9479 80.0241 42.9267 73.9071 42.9348H54.9083C50.446 42.9449 46.4163 40.2564 44.6952 36.1213C44.1168 34.7554 43.821 33.2874 43.8261 31.8043V23.8532C43.823 13.7401 51.1089 5.11212 61.0434 3.4623C62.4788 3.22084 63.9364 3.13597 65.389 3.21074C76.5386 3.8937 85.1775 13.2713 84.9904 24.4887Z" fill="#2F3D57"/>
<path d="M34.8307 23.8522H31.6641V31.8032H34.8307V23.8522Z" fill="#2F3D57"/>
<path d="M64.4062 17.4913C61.7838 17.4913 59.6562 19.6271 59.6562 22.262C59.6562 24.8968 61.7828 27.0326 64.4062 27.0326C67.0297 27.0326 69.1562 24.8968 69.1562 22.262C69.1562 19.6271 67.0307 17.4913 64.4062 17.4913ZM64.4062 23.8522C63.5321 23.8522 62.8229 23.1399 62.8229 22.262C62.8229 21.384 63.5321 20.6718 64.4062 20.6718C65.2804 20.6718 65.9895 21.384 65.9895 22.262C65.9905 23.1409 65.2804 23.8522 64.4062 23.8522Z" fill="#2F3D57"/>
</svg>
