<?xml version="1.0" encoding="utf-8"?>
<!-- Generator: Adobe Illustrator 22.0.1, SVG Export Plug-In . SVG Version: 6.00 Build 0)  -->
<svg version="1.1" id="Layer_1" xmlns="http://www.w3.org/2000/svg" xmlns:xlink="http://www.w3.org/1999/xlink" x="0px" y="0px"
	 viewBox="0 0 20 20" style="enable-background:new 0 0 20 20;" xml:space="preserve">
<style type="text/css">
	.st0{fill:#8893A3;stroke:#8893A3;}
</style>
<path class="st0" d="M11,1.5c-4.2,0-7.7,3.1-8.4,7.1L1.4,6.9C1.2,6.7,0.9,6.6,0.7,6.8C0.5,6.9,0.4,7.2,0.6,7.5l2,2.8c0,0,0,0,0,0
	c0,0,0.1,0.1,0.1,0.1c0,0,0,0,0,0c0.1,0,0.1,0.1,0.2,0.1c0.1,0,0.2,0,0.2-0.1c0,0,0,0,0,0l3-1.8C6.5,8.5,6.6,8.2,6.4,8
	C6.3,7.7,6,7.6,5.8,7.8L3.5,9.1C3.9,5.4,7.1,2.5,11,2.5c4.2,0,7.5,3.4,7.5,7.5c0,4.2-3.4,7.5-7.5,7.5c-2.7,0-5.2-1.4-6.5-3.7
	c-0.1-0.2-0.4-0.3-0.7-0.2s-0.3,0.4-0.2,0.7c1.5,2.6,4.3,4.2,7.3,4.2c4.7,0,8.5-3.8,8.5-8.5S15.7,1.5,11,1.5z"/>
</svg>
