<?xml version="1.0" encoding="utf-8"?>
<!-- Generator: Adobe Illustrator 22.0.1, SVG Export Plug-In . SVG Version: 6.00 Build 0)  -->
<svg version="1.1" id="Layer_1" xmlns="http://www.w3.org/2000/svg" xmlns:xlink="http://www.w3.org/1999/xlink" x="0px" y="0px"
	 viewBox="0 0 20 20" style="enable-background:new 0 0 20 20;" xml:space="preserve">
<style type="text/css">
	.st0{fill:#7D7053;stroke:#7D7053;stroke-width:0.5;}
</style>
<g>
	<path class="st0" d="M18.9,11.6l-3.3-1.9c-0.2-0.1-0.3-0.3-0.3-0.5V9.1c0-0.2,0.1-0.3,0.2-0.4c1-0.7,1.5-1.8,1.5-3v-2
		c0-1.5-0.9-2.5-2.5-2.9c-0.8-0.2-1.5-0.2-2.2,0s-1.3,0.5-1.6,1c-0.3-0.1-0.5-0.2-0.8-0.3C9.3,1.4,8.8,1.3,8.3,1.3s-1,0.1-1.5,0.2
		C4.8,2,3.6,3.3,3.6,5.2v2.6c0,1.5,0.8,2.9,1.9,3.8C5.8,11.7,6,11.9,6,12.2v0.2c0,0.3-0.2,0.6-0.4,0.7l-4.4,2.5
		c-0.5,0.3-0.8,0.8-0.8,1.4v1.5c0,0.6,0.5,1,1,1h13.9c0.5,0,1-0.4,1-1v-1.3c0-0.6-0.3-1.1-0.8-1.4l-2.1-1.3h5c0.5,0,1-0.4,1-1v-0.8
		C19.6,12.3,19.3,11.9,18.9,11.6z M15.5,17.1v1.3c0,0.1-0.1,0.2-0.2,0.2H1.4c-0.1,0-0.2-0.1-0.2-0.2V17c0-0.3,0.2-0.6,0.4-0.7
		L6,13.8c0.5-0.3,0.8-0.8,0.8-1.4v-0.2c0-0.5-0.3-1-0.7-1.3C5,10.3,4.4,9.1,4.4,7.8V5.1c0-1.8,1.5-2.6,2.6-2.9C7.4,2.1,7.9,2,8.2,2
		c0.4,0,0.9,0.1,1.3,0.2c1,0.3,2.6,1,2.6,2.9v2.6c0,1.3-0.6,2.4-1.6,3.2c-0.4,0.3-0.7,0.8-0.7,1.3v0.2c0,0.6,0.3,1.1,0.8,1.4
		l4.4,2.6C15.3,16.6,15.5,16.9,15.5,17.1z M18.8,13.6c0,0.1-0.1,0.2-0.2,0.2h-6.4l-1.1-0.7c-0.3-0.2-0.4-0.4-0.4-0.7v-0.2
		c0-0.3,0.1-0.5,0.4-0.7c1.3-0.9,1.9-2.3,1.9-3.8V5.1c0-1.4-0.6-2.3-1.7-3.1c0.3-0.3,0.7-0.5,1.2-0.6c0.6-0.2,1.3-0.2,1.8,0
		c0.9,0.2,1.9,0.8,1.9,2.1v2c0,1-0.5,1.8-1.3,2.3c-0.4,0.2-0.6,0.7-0.6,1.1V9c0,0.5,0.3,0.9,0.7,1.2l3.3,1.9
		c0.2,0.1,0.3,0.3,0.3,0.5L18.8,13.6z"/>
</g>
</svg>
