<?xml version="1.0" encoding="utf-8"?>
<!-- Generator: Adobe Illustrator 22.0.1, SVG Export Plug-In . SVG Version: 6.00 Build 0)  -->
<svg version="1.1" id="Layer_1" xmlns="http://www.w3.org/2000/svg" xmlns:xlink="http://www.w3.org/1999/xlink" x="0px" y="0px"
	 viewBox="0 0 20 20" style="enable-background:new 0 0 20 20;" xml:space="preserve">
<style type="text/css">
	.st0{fill:none;stroke:#7D7053;stroke-width:1.4;}
</style>
<path class="st0" d="M1.3,10.4C1.1,10.4,1,10.2,1,10V1.3C1,1.1,1.1,1,1.3,1h6.6c0.2,0,0.3,0.1,0.3,0.3V10c0,0.2-0.1,0.3-0.3,0.3
	L1.3,10.4L1.3,10.4z M1.3,19C1.1,19,1,18.9,1,18.7v-4.4C1,14.1,1.1,14,1.3,14h6.6c0.2,0,0.3,0.1,0.3,0.3v4.4c0,0.2-0.1,0.3-0.3,0.3
	H1.3z M12.1,19c-0.2,0-0.3-0.1-0.3-0.3V10c0-0.2,0.1-0.3,0.3-0.3h6.6c0.2,0,0.3,0.1,0.3,0.3v8.7c0,0.2-0.1,0.3-0.3,0.3H12.1z
	 M11.8,1.3c0-0.2,0.1-0.3,0.3-0.3h6.6C18.9,1,19,1.1,19,1.3v4.4C19,5.9,18.9,6,18.7,6h-6.6c-0.2,0-0.3-0.1-0.3-0.3V1.3z"/>
</svg>
