<?xml version="1.0" encoding="utf-8"?>
<!-- Generator: Adobe Illustrator 22.0.1, SVG Export Plug-In . SVG Version: 6.00 Build 0)  -->
<svg version="1.1" id="Layer_1" xmlns="http://www.w3.org/2000/svg" xmlns:xlink="http://www.w3.org/1999/xlink" x="0px" y="0px"
	 viewBox="0 0 20 20" style="enable-background:new 0 0 20 20;" xml:space="preserve">
<style type="text/css">
	.st0{fill:#8893A3;}
	.st1{fill:#8893A3;stroke:#8893A3;stroke-width:0.5;}
</style>
<path class="st0" d="M8.9,9.7H7v1.3v3.2h0.6v-1.9h1.3c0.7,0,1.3-0.6,1.3-1.3C10.2,10.3,9.6,9.7,8.9,9.7z M8.9,11.6H7.6v-1.3h1.3
	c0.4,0,0.6,0.3,0.6,0.6C9.5,11.3,9.3,11.6,8.9,11.6z"/>
<path class="st0" d="M12.7,9.7h-1.9v4.4h1.9c0.7,0,1.3-0.6,1.3-1.3v-1.9C14,10.3,13.4,9.7,12.7,9.7z M13.3,12.9
	c0,0.4-0.3,0.6-0.6,0.6h-1.3v-3.2h1.3c0.4,0,0.6,0.3,0.6,0.6V12.9z"/>
<path class="st1" d="M17.8,7.8h-5.1V5.9L8.9,1.4h-7C1.2,1.4,0.7,2,0.7,2.7v14.6c0,0.7,0.6,1.3,1.3,1.3h9.5c0.7,0,1.3-0.6,1.3-1.3V16
	h5.1c1.1,0,1.9-0.8,1.9-1.9V9.7C19.7,8.6,18.8,7.8,17.8,7.8z M8.9,2.4l3,3.5H9.5c-0.3,0-0.6-0.3-0.6-0.6V2.4z M12.1,17.3
	c0,0.3-0.3,0.6-0.6,0.6H1.9c-0.3,0-0.6-0.3-0.6-0.6V2.7c0-0.3,0.3-0.6,0.6-0.6h6.3v3.2c0,0.7,0.6,1.3,1.3,1.3h2.5v1.3H7
	c-1.1,0-1.9,0.8-1.9,1.9v4.4C5.1,15.2,5.9,16,7,16h5.1V17.3z M19,14.1c0,0.7-0.6,1.3-1.3,1.3H7c-0.7,0-1.3-0.6-1.3-1.3V9.7
	C5.7,9,6.3,8.4,7,8.4h10.8C18.5,8.4,19,9,19,9.7V14.1z"/>
<path class="st0" d="M14.6,14.1h0.6v-1.9h1.9v-0.6h-1.9v-1.3h2.5V9.7h-3.2V14.1z"/>
</svg>
