<?xml version="1.0" encoding="utf-8"?>
<!-- Generator: Adobe Illustrator 22.0.1, SVG Export Plug-In . SVG Version: 6.00 Build 0)  -->
<svg version="1.1" xmlns="http://www.w3.org/2000/svg" xmlns:xlink="http://www.w3.org/1999/xlink" x="0px" y="0px"
	 viewBox="0 0 20 20" style="enable-background:new 0 0 20 20;" xml:space="preserve">
<style type="text/css">
	.st0{fill:#A48C10;}
	.st1{display:none;}
</style>
<g id="Layer_1">
	<path class="st0" d="M10.3,1.7C8.6,1.9,7,2.6,5.7,3.8C4.2,5.1,3.2,6.9,3,8.8L2.9,9.2L2,8.3C1.2,7.5,1.1,7.5,1,7.5
		c-0.2,0-0.3,0.1-0.4,0.2C0.4,8,0.4,8,1.8,9.4l1.3,1.3h0.2h0.2l1.3-1.3C5.7,8.6,6.1,8.1,6.1,8C6.2,7.7,6,7.5,5.7,7.5
		c-0.2,0-0.2,0.1-1,0.9L3.8,9.2l0-0.2c0.4-2.3,1.7-4.3,3.7-5.4c2.3-1.3,5.1-1.3,7.4,0.1c1.1,0.7,2.2,1.9,2.8,3c0.9,1.8,1,4,0.3,5.9
		c-0.4,1.1-0.9,1.8-1.7,2.7c-0.9,0.9-1.8,1.4-2.9,1.8c-1.1,0.4-2.2,0.5-3.3,0.3c-1.5-0.2-2.8-0.8-4-1.8c-0.3-0.3-0.4-0.3-0.6-0.3
		c-0.2,0-0.3,0.1-0.4,0.2c-0.1,0.2-0.1,0.4,0.3,0.7c1.9,1.7,4.5,2.5,7.1,2.1c3-0.5,5.4-2.6,6.4-5.5c1-3,0.3-6.3-2-8.6
		c-1.2-1.2-2.8-2-4.4-2.3C12,1.7,10.8,1.7,10.3,1.7z"/>
	<path class="st0" d="M10.6,5.1l-0.1,0.1V8c0,2.5,0,2.7,0.1,2.8c0.1,0.2,0.2,0.2,1.9,0.2c1.8,0,1.8,0,2-0.2c0.1-0.2,0.1-0.3,0-0.4
		c-0.1-0.2-0.2-0.2-1.7-0.2h-1.4V7.7c0-2.5,0-2.6-0.2-2.7C11,5,10.7,5,10.6,5.1z"/>
</g>
<g id="Guides" class="st1">
</g>
</svg>
