<?xml version="1.0" encoding="utf-8"?>
<!-- Generator: Adobe Illustrator 22.0.1, SVG Export Plug-In . SVG Version: 6.00 Build 0)  -->
<svg version="1.1" id="Layer_1" xmlns="http://www.w3.org/2000/svg" xmlns:xlink="http://www.w3.org/1999/xlink" x="0px" y="0px"
	 viewBox="0 0 20 20" style="enable-background:new 0 0 20 20;" xml:space="preserve">
<style type="text/css">
	.st0{clip-path:url(#SVGID_2_);}
	.st1{fill:#435166;stroke:#435166;}
</style>
<g>
	<defs>
		<rect id="SVGID_1_" width="20" height="20"/>
	</defs>
	<clipPath id="SVGID_2_">
		<use xlink:href="#SVGID_1_"  style="overflow:visible;"/>
	</clipPath>
	<g class="st0">
		<path class="st1" d="M10,14.9c-0.2,0-0.3-0.1-0.3-0.3l0-6.8c0-0.2,0.1-0.3,0.3-0.3c0.2,0,0.3,0.1,0.3,0.3l0,6.8
			C10.3,14.8,10.2,14.9,10,14.9z"/>
		<path class="st1" d="M10,14.9c-0.1,0-0.2,0-0.2-0.1l-2.6-2.6c-0.1-0.1-0.1-0.3,0-0.4c0.1-0.1,0.3-0.1,0.4,0l2.4,2.4l2.4-2.4
			c0.1-0.1,0.3-0.1,0.4,0c0.1,0.1,0.1,0.3,0,0.4l-2.6,2.6C10.2,14.9,10.1,14.9,10,14.9z"/>
		<path class="st1" d="M16.6,20H3.4c-0.8,0-1.5-0.7-1.5-1.5v-17C1.9,0.7,2.6,0,3.4,0H13c0.2,0,0.3,0.1,0.3,0.3
			c0,0.2-0.1,0.3-0.3,0.3H3.4C2.9,0.6,2.5,1,2.5,1.5v17c0,0.5,0.4,0.9,0.9,0.9h13.1c0.5,0,0.9-0.4,0.9-0.9V5.2
			c0-0.2,0.1-0.3,0.3-0.3c0.2,0,0.3,0.1,0.3,0.3v13.3C18.1,19.3,17.4,20,16.6,20z"/>
		<path class="st1" d="M17.8,5.5H13c-0.2,0-0.3-0.1-0.3-0.3V0.4c0-0.2,0.1-0.3,0.3-0.3c0.2,0,0.3,0.1,0.3,0.3v4.5h4.5
			c0.2,0,0.3,0.1,0.3,0.3S17.9,5.5,17.8,5.5z"/>
		<path class="st1" d="M17.8,5.5c-0.1,0-0.2,0-0.2-0.1l-4.8-4.9c-0.1-0.1-0.1-0.3,0-0.4c0.1-0.1,0.3-0.1,0.4,0L18,5
			c0.1,0.1,0.1,0.3,0,0.4C17.9,5.5,17.8,5.5,17.8,5.5z"/>
	</g>
</g>
</svg>
