<svg width="16" height="15" viewBox="0 0 16 15" fill="none" xmlns="http://www.w3.org/2000/svg">
<path d="M11.6014 7.80261C11.7504 7.66028 11.7504 7.43621 11.6014 7.29388C11.4574 7.15155 11.2177 7.15155 11.0741 7.29388L8.37323 9.86862V1.36127C8.37323 1.16284 8.20809 1 8.00034 1C7.79258 1 7.62208 1.16284 7.62208 1.36127V9.86862L4.92659 7.29388C4.77757 7.15155 4.53759 7.15155 4.39394 7.29388C4.24492 7.43621 4.24492 7.66028 4.39394 7.80261L7.73418 10.9928C7.87816 11.1303 8.11781 11.1303 8.26683 10.9928L11.6014 7.80261ZM14.2488 10.1382C14.2488 9.93978 14.414 9.78207 14.6217 9.78207C14.8295 9.78207 15 9.93978 15 10.1382V13.6387C15 13.8372 14.8295 14 14.6217 14H1.37289C1.16513 14 1 13.8372 1 13.6387V10.1382C1 9.93978 1.16513 9.78207 1.37289 9.78207C1.58065 9.78207 1.75115 9.93978 1.75115 10.1382V13.2826H14.2488V10.1382Z" fill="white" stroke="white" stroke-width="0.5"/>
</svg>
