<?xml version="1.0" encoding="utf-8"?>
<!-- Generator: Adobe Illustrator 22.0.1, SVG Export Plug-In . SVG Version: 6.00 Build 0)  -->
<svg version="1.1" id="Layer_1" xmlns="http://www.w3.org/2000/svg" xmlns:xlink="http://www.w3.org/1999/xlink" x="0px" y="0px"
	 viewBox="0 0 20 20" style="enable-background:new 0 0 20 20;" xml:space="preserve">
<style type="text/css">
	.st0{fill:#435166;}
</style>
<path class="st0" d="M19.4,1.6c-0.1-0.3-0.4-0.5-0.7-0.5H1.2c-0.3,0-0.6,0.2-0.7,0.5C0.4,1.9,0.5,2.2,0.6,2.5l6.8,8.3v5.6
	c0,0.3,0.2,0.6,0.4,0.7l3.5,1.8c0.1,0.1,0.2,0.1,0.3,0.1c0.1,0,0.3,0,0.4-0.1c0.2-0.1,0.4-0.4,0.4-0.7v-7.4l6.8-8.3
	C19.5,2.2,19.5,1.9,19.4,1.6z M11.1,10c-0.1,0.1-0.2,0.3-0.2,0.5V17l-2-1v-5.4c0-0.2-0.1-0.4-0.2-0.5L2.9,2.8H17L11.1,10z"/>
</svg>
