<svg width="4" height="16" viewBox="0 0 4 16" fill="none" xmlns="http://www.w3.org/2000/svg">
<path d="M2.00006 4C3.10009 4 4.00012 3.1 4.00012 2C4.00012 0.9 3.10009 0 2.00006 0C0.900027 0 0 0.9 0 2C0 3.1 0.900027 4 2.00006 4ZM2.00006 6C0.900027 6 0 6.9 0 8C0 9.1 0.900027 10 2.00006 10C3.10009 10 4.00012 9.1 4.00012 8C4.00012 6.9 3.10009 6 2.00006 6ZM2.00006 12C0.900027 12 0 12.9 0 14C0 15.1 0.900027 16 2.00006 16C3.10009 16 4.00012 15.1 4.00012 14C4.00012 12.9 3.10009 12 2.00006 12Z" fill="#8893A3"/>
</svg>
