<svg width="20" height="20" viewBox="0 0 20 20" fill="none" xmlns="http://www.w3.org/2000/svg">
<path d="M19.0909 12.3636H16.3636V7.59976C16.3638 7.5917 16.3648 7.58382 16.3648 7.57576C16.3648 7.35721 16.2868 7.15739 16.1584 7.00061C16.1571 6.99903 16.1558 6.99739 16.1545 6.99582C16.1378 6.9757 16.1201 6.95642 16.1017 6.93776C16.099 6.93509 16.0964 6.93236 16.0938 6.9297C16.0857 6.92176 16.0783 6.91321 16.0699 6.90558L9.43085 0.266424C9.43061 0.266182 9.43024 0.265879 9.42994 0.265576C9.41133 0.24697 9.39188 0.229636 9.372 0.212909C9.3657 0.207636 9.35921 0.202727 9.35285 0.197576C9.33824 0.186 9.32345 0.174848 9.30824 0.164242C9.30073 0.15897 9.29315 0.153758 9.28546 0.148727C9.26945 0.138242 9.25309 0.128424 9.23655 0.11903C9.22988 0.115212 9.22339 0.111091 9.21655 0.107455C9.19448 0.095697 9.17206 0.0849091 9.14921 0.0750303C9.14 0.0710303 9.13042 0.0675151 9.12103 0.0638182C9.10588 0.0578182 9.09061 0.0521818 9.07515 0.0470303C9.06455 0.0435152 9.05394 0.0401212 9.04321 0.0369697C9.0257 0.0318788 9.008 0.0273939 8.99018 0.0233333C8.98224 0.0215758 8.97449 0.0193333 8.96642 0.017697C8.94097 0.0126061 8.91527 0.00884848 8.88945 0.006C8.88158 0.00509091 8.87358 0.00460606 8.86558 0.00387879C8.84424 0.002 8.82285 0.000969697 8.80133 0.000606061C8.79685 0.000606061 8.79249 0 8.78788 0H0.909091C0.40703 0 0 0.40703 0 0.909091V19.0909C0 19.593 0.40703 20 0.909091 20H15.4545C15.9566 20 16.3636 19.593 16.3636 19.0909V14.1818H19.0909C19.593 14.1818 20 13.7748 20 13.2727C20 12.7707 19.593 12.3636 19.0909 12.3636ZM9.69697 3.10382L13.2598 6.66667H9.69697V3.10382ZM14.5455 18.1818H1.81818V1.81818H7.87879V7.57576C7.87879 8.07782 8.28582 8.48485 8.78788 8.48485H14.5455V12.3636L10.9827 12.3635L11.7035 11.6428C12.0585 11.2878 12.0585 10.7122 11.7035 10.3572C11.3484 10.0022 10.7728 10.0021 10.4178 10.3571L8.14509 12.6298C8.1417 12.6332 8.13879 12.6369 8.13552 12.6404C8.11824 12.6582 8.10133 12.6763 8.08564 12.6955C8.07988 12.7024 8.07497 12.71 8.06939 12.7171C8.05673 12.7335 8.044 12.7498 8.03249 12.767C8.02842 12.773 8.02509 12.7795 8.02115 12.7856C8.00909 12.8045 7.99721 12.8236 7.98648 12.8435C7.98412 12.8479 7.98224 12.8525 7.97994 12.857C7.96867 12.879 7.95782 12.9012 7.9483 12.924C7.94709 12.927 7.94618 12.9301 7.94497 12.9331C7.93515 12.9575 7.926 12.9822 7.9183 13.0076C7.91727 13.0109 7.91667 13.0143 7.9157 13.0176C7.90842 13.0426 7.90176 13.0678 7.89661 13.0936C7.89509 13.1011 7.89442 13.1088 7.89315 13.1164C7.88939 13.138 7.88558 13.1596 7.88339 13.1818C7.88036 13.2119 7.87879 13.2421 7.87879 13.2725C7.87879 13.303 7.88036 13.3333 7.88339 13.3633C7.88558 13.3855 7.88939 13.4071 7.89315 13.4288C7.89442 13.4363 7.89509 13.444 7.89661 13.4515C7.90182 13.4776 7.90855 13.5031 7.91594 13.5283C7.91679 13.5313 7.91733 13.5344 7.9183 13.5374C7.92606 13.5629 7.93521 13.5878 7.94509 13.6124C7.94624 13.6152 7.94709 13.6182 7.9483 13.621C7.95794 13.6442 7.96885 13.6666 7.9803 13.6888C7.98249 13.693 7.98424 13.6974 7.98648 13.7016C7.99727 13.7218 8.00933 13.7411 8.02164 13.7603C8.02533 13.7662 8.02855 13.7723 8.03242 13.7781C8.04436 13.7959 8.05758 13.8129 8.07073 13.8299C8.07576 13.8364 8.0803 13.8433 8.08552 13.8496C8.10297 13.8708 8.12152 13.8912 8.14079 13.9107C8.14224 13.9122 8.14358 13.9139 8.14509 13.9154L10.4178 16.1882C10.5954 16.3657 10.828 16.4545 11.0607 16.4545C11.2933 16.4545 11.526 16.3657 11.7035 16.1882C12.0585 15.8332 12.0585 15.2576 11.7035 14.9026L10.9826 14.1817L14.5455 14.1818V18.1818Z" fill="white"/>
</svg>
