<?xml version="1.0" encoding="utf-8"?>
<!-- Generator: Adobe Illustrator 22.0.1, SVG Export Plug-In . SVG Version: 6.00 Build 0)  -->
<svg version="1.1" id="Layer_1" xmlns="http://www.w3.org/2000/svg" xmlns:xlink="http://www.w3.org/1999/xlink" x="0px" y="0px"
	 viewBox="0 0 20 20" style="enable-background:new 0 0 20 20;" xml:space="preserve">
<style type="text/css">
	.st0{fill:#0C5460;}
</style>
<g>
	<g>
		<path class="st0" d="M11.8,4.2c-0.4-0.4-1-0.7-1.7-0.7C9,3.5,7.9,4.3,7.8,5.3C7.7,5.8,7.9,6.2,8.2,6.6c0.4,0.4,1,0.7,1.6,0.7
			c1.2,0,2.3-0.8,2.4-1.8C12.3,5,12.1,4.5,11.8,4.2z M11.3,5.3c-0.1,0.5-0.7,1-1.4,1c-0.4,0-0.7-0.1-0.9-0.4
			C8.8,5.8,8.7,5.6,8.7,5.4c0.1-0.5,0.7-1,1.4-1c0.4,0,0.7,0.1,0.9,0.4C11.2,4.9,11.3,5.1,11.3,5.3z"/>
	</g>
</g>
<g>
	<g>
		<path class="st0" d="M12,14.4c-0.1-0.1-0.4-0.3-0.2-1.6c0,0,0-0.1,0.1-0.3c0.1-0.4,0.2-1.1,0.4-1.8c0,0,0,0,0,0
			c0.2-0.8,0-1.6-0.4-2.1c-0.4-0.5-1-0.8-1.7-0.9c-1-0.1-2.1,0.5-2.5,1.1c-0.2,0.3-0.1,0.5,0,0.6C7.8,9.6,7.9,9.7,8,9.7
			c0.1,0.1,0.4,0.3,0.1,1.6c0,0.1-0.4,2-0.4,2.2c0,0,0,0,0,0c-0.1,0.8,0,1.6,0.4,2.1c0.7,0.9,1.8,0.8,1.8,0.8c1,0,2-0.6,2.3-1.2
			c0.1-0.3,0.1-0.5,0-0.6C12.2,14.6,12.1,14.5,12,14.4z M11.3,10.5C11.2,11.3,11,12,11,12.4c-0.1,0.3-0.1,0.3-0.1,0.3c0,0,0,0,0,0
			c-0.2,1.4,0,2,0.4,2.4c-0.1,0.1-0.2,0.2-0.4,0.3c-0.3,0.2-0.7,0.2-1,0.2c-0.4,0-0.8-0.2-1-0.5c-0.3-0.3-0.3-0.8-0.2-1.3
			c0.1-0.3,0.4-2.1,0.4-2.2c0,0,0,0,0,0c0.3-1.4,0-2-0.3-2.4C8.9,9.1,9,9,9.2,8.9c0.3-0.2,0.7-0.2,1-0.2c0.4,0,0.8,0.2,1,0.5
			C11.4,9.5,11.5,10,11.3,10.5z"/>
	</g>
</g>
<g>
	<g>
		<path class="st0" d="M18,15.4c1.3-1.6,2-3.5,2-5.5c0-2.5-1-4.8-2.9-6.5c-1.9-1.7-4.4-2.7-7.1-2.7S4.8,1.7,2.9,3.4
			C1,5.1,0,7.4,0,9.9s1,4.8,2.9,6.5C4.8,18.1,7.3,19,10,19c1.7,0,3.3-0.4,4.8-1.1l3.5,1.3c0.1,0,0.1,0,0.2,0c0.1,0,0.2,0,0.3-0.1
			c0.1-0.1,0.2-0.3,0.1-0.5L18,15.4z M14.9,17c-0.1,0-0.3,0-0.4,0c-1.4,0.7-2.9,1.1-4.5,1.1c-5,0-9-3.7-9-8.2S5,1.7,10,1.7
			s9,3.7,9,8.2c0,1.9-0.7,3.6-2,5.1c-0.1,0.1-0.1,0.3-0.1,0.4l0.7,2.6L14.9,17z"/>
	</g>
</g>
</svg>
