<?xml version="1.0" encoding="utf-8"?>
<!-- Generator: Adobe Illustrator 22.0.1, SVG Export Plug-In . SVG Version: 6.00 Build 0)  -->
<svg version="1.1" id="Layer_1" xmlns="http://www.w3.org/2000/svg" xmlns:xlink="http://www.w3.org/1999/xlink" x="0px" y="0px"
	 viewBox="0 0 20 20" style="enable-background:new 0 0 20 20;" xml:space="preserve">
<style type="text/css">
	.st0{fill:#FFFFFF;stroke:#FFFFFF;stroke-width:0.5;}
</style>
<path class="st0" d="M19.7,8.2l-0.6-6.5l0,0C19,1.3,18.7,1,18.3,0.9l0,0l-6.5-0.6c-0.1,0-0.1,0-0.2,0c-0.3,0-0.5,0.1-0.7,0.3
	L0.6,10.9c-0.2,0.2-0.3,0.5-0.3,0.7c0,0.3,0.1,0.5,0.3,0.7l7.1,7.1c0.2,0.2,0.5,0.3,0.7,0.3c0.3,0,0.5-0.1,0.7-0.3L19.4,9.1
	C19.6,8.9,19.7,8.6,19.7,8.2z M18.8,8.6L8.6,18.8c-0.1,0.1-0.2,0.1-0.3,0l-7.1-7.1c0,0-0.1-0.1-0.1-0.2c0-0.1,0-0.1,0.1-0.2
	L11.4,1.2c0,0,0.1-0.1,0.2-0.1l0,0l0,0l6.5,0.6c0.1,0,0.1,0.1,0.2,0.2l0.6,6.5l0,0C18.9,8.4,18.9,8.5,18.8,8.6z"/>
<path class="st0" d="M15.5,2.7c-0.5,0-0.9,0.2-1.3,0.5c-0.7,0.7-0.7,1.9,0,2.6c0.3,0.3,0.8,0.5,1.3,0.5s0.9-0.2,1.3-0.5
	c0.7-0.7,0.7-1.9,0-2.6C16.4,2.9,16,2.7,15.5,2.7z M16.2,5.3c-0.2,0.2-0.5,0.3-0.7,0.3c-0.3,0-0.5-0.1-0.7-0.3
	c-0.4-0.4-0.4-1.1,0-1.5c0.2-0.2,0.5-0.3,0.7-0.3c0.3,0,0.5,0.1,0.7,0.3C16.6,4.2,16.6,4.9,16.2,5.3z"/>
</svg>
