<?xml version="1.0" encoding="utf-8"?>
<!-- Generator: Adobe Illustrator 22.0.1, SVG Export Plug-In . SVG Version: 6.00 Build 0)  -->
<svg version="1.1" id="Layer_1" xmlns="http://www.w3.org/2000/svg" xmlns:xlink="http://www.w3.org/1999/xlink" x="0px" y="0px"
	 viewBox="0 0 20 20" style="enable-background:new 0 0 20 20;" xml:space="preserve">
<style type="text/css">
	.st0{fill:#8893A3;}
</style>
<path class="st0" d="M7.5,6.9c-0.7,0-1.3-0.4-1.3-0.9C6.3,5.4,6.8,5,7.5,5c0.3,0,0.7,0.1,0.9,0.3c0.3,0.2,0.7,0.2,0.9-0.1
	c0.2-0.3,0.2-0.7-0.1-0.9C8.9,4.1,8.5,3.9,8.1,3.8V3.1c0-0.3-0.3-0.6-0.6-0.6c-0.3,0-0.6,0.3-0.6,0.6v0.7C5.8,4.1,5,4.9,5,5.9
	c0,1.2,1.1,2.2,2.5,2.2c0.7,0,1.3,0.4,1.3,0.9c0,0.5-0.6,0.9-1.3,0.9c-0.3,0-0.7-0.1-0.9-0.3C6.3,9.5,5.9,9.5,5.7,9.8
	c-0.2,0.3-0.2,0.7,0.1,0.9c0.3,0.2,0.7,0.4,1.1,0.5v0.7c0,0.3,0.3,0.6,0.6,0.6c0.3,0,0.6-0.3,0.6-0.6v-0.7c1.1-0.2,1.9-1.1,1.9-2.1
	C10,7.9,8.9,6.9,7.5,6.9z"/>
<path class="st0" d="M17.5,5.4c0-0.1-0.1-0.1-0.1-0.2l-5-5c-0.1-0.1-0.1-0.1-0.2-0.1C12,0,12,0,11.9,0H3.8C3.1,0,2.5,0.6,2.5,1.3
	v17.5c0,0.7,0.6,1.3,1.3,1.3h12.5c0.7,0,1.3-0.6,1.3-1.3V5.6C17.5,5.5,17.5,5.5,17.5,5.4z M12.5,2.1L15.4,5h-2.9V2.1z M16.3,19.4
	v-0.6H3.8V1.3h7.5V5c0,0.7,0.6,1.3,1.3,1.3h3.8v12.5c0,0,0,0,0,0L16.3,19.4z"/>
<path class="st0" d="M14.4,8.8h-2.5c-0.3,0-0.6,0.3-0.6,0.6c0,0.3,0.3,0.6,0.6,0.6h2.5c0.3,0,0.6-0.3,0.6-0.6S14.7,8.8,14.4,8.8z"/>
<path class="st0" d="M14.4,11.3h-2.5c-0.3,0-0.6,0.3-0.6,0.6c0,0.3,0.3,0.6,0.6,0.6h2.5c0.3,0,0.6-0.3,0.6-0.6
	C15,11.5,14.7,11.3,14.4,11.3z"/>
<path class="st0" d="M14.4,13.8H5.6C5.3,13.8,5,14,5,14.4C5,14.7,5.3,15,5.6,15h8.8c0.3,0,0.6-0.3,0.6-0.6
	C15,14,14.7,13.8,14.4,13.8z"/>
<path class="st0" d="M14.4,16.3H5.6c-0.3,0-0.6,0.3-0.6,0.6c0,0.3,0.3,0.6,0.6,0.6h8.8c0.3,0,0.6-0.3,0.6-0.6
	C15,16.5,14.7,16.3,14.4,16.3z"/>
</svg>
