<?xml version="1.0" encoding="utf-8"?>
<!-- Generator: Adobe Illustrator 22.0.1, SVG Export Plug-In . SVG Version: 6.00 Build 0)  -->
<svg version="1.1" id="Layer_1" xmlns="http://www.w3.org/2000/svg" xmlns:xlink="http://www.w3.org/1999/xlink" x="0px" y="0px"
	 viewBox="0 0 20 20" style="enable-background:new 0 0 20 20;" xml:space="preserve">
<style type="text/css">
	.st0{fill:#FFFFFF;stroke:#FFFFFF;stroke-width:0.25;}
</style>
<g>
	<path class="st0" d="M16.6,15.7l-0.1-0.1l0,0l-1.9-1.1V6.3V6.2l-2.5-5.9c0-0.1-0.1-0.2-0.2-0.2c-0.1,0-0.2,0-0.3,0L7.1,2.5L5.8,3.2
		C5.6,3.3,5.6,3.4,5.6,3.6l2,5.2v5.4l-4.1,2.1c-0.1,0-0.2,0.2-0.1,0.4l0.1,0.1L9.2,20c0.1,0,0.3,0,0.4,0l6.8-3.7
		C16.6,16.1,16.7,15.9,16.6,15.7z M11.4,0.8l2.4,5.5v9.2l-4,2.3v-9V8.7L7.7,2.9L11.4,0.8z M6.4,3.6L7,3.2l2.1,5.6v9.1l-0.8-0.4V8.7
		V8.6L6.4,3.6z M9.4,19.3l-4.9-2.8l3.2-1.7v2.8c0,0.1,0.1,0.3,0.2,0.3l1.4,0.8l0,0l0,0h0.1l0,0h0.1l0,0h0.1l4.7-2.7
		c0.1-0.1,0.2-0.2,0.2-0.3v-0.4l1,0.6L9.4,19.3z"/>
	<path class="st0" d="M13.3,6.2l-1.8-4.3c-0.1-0.2-0.3-0.3-0.4-0.2l0,0L8.5,3.1C8.4,3.2,8.2,3.3,8.4,3.5l1.8,4.3
		c0,0.1,0.1,0.2,0.2,0.2c0.1,0,0.2,0,0.3,0l2.5-1.4C13.3,6.5,13.4,6.3,13.3,6.2z M10.7,7.2L9.1,3.5l2-1l1.4,3.6L10.7,7.2z"/>
	<path class="st0" d="M13.3,7.5c-0.1-0.1-0.2-0.1-0.4-0.1l-2.3,1.3c-0.1,0.1-0.2,0.3,0,0.5c0.1,0.1,0.2,0.1,0.4,0.1L13.3,8
		C13.4,7.9,13.4,7.6,13.3,7.5z"/>
</g>
</svg>
