<?xml version="1.0" encoding="utf-8"?>
<!-- Generator: Adobe Illustrator 22.0.1, SVG Export Plug-In . SVG Version: 6.00 Build 0)  -->
<svg version="1.1" id="Layer_1" xmlns="http://www.w3.org/2000/svg" xmlns:xlink="http://www.w3.org/1999/xlink" x="0px" y="0px"
	 viewBox="0 0 20 20" style="enable-background:new 0 0 20 20;" xml:space="preserve">
<style type="text/css">
	.st0{fill:#818182;}
</style>
<g>
	<g>
		<path class="st0" d="M19.7,15.9L11.5,2.3c-0.3-0.5-0.9-0.9-1.5-0.9S8.8,1.7,8.5,2.3L0.3,15.9c-0.3,0.6-0.3,1.2,0,1.8
			c0.3,0.6,0.9,0.9,1.6,0.9h16.4c0.6,0,1.2-0.3,1.6-0.9C20.1,17.1,20.1,16.4,19.7,15.9z M18.6,17c-0.1,0.2-0.3,0.3-0.4,0.3H1.8
			c-0.2,0-0.3-0.1-0.4-0.3c-0.1-0.2-0.1-0.3,0-0.5L9.6,2.9C9.7,2.8,9.8,2.7,10,2.7c0.2,0,0.3,0.1,0.4,0.2l8.2,13.6
			C18.7,16.7,18.7,16.9,18.6,17z"/>
	</g>
</g>
<g>
	<g>
		<path class="st0" d="M10,6.8C9.5,6.8,9.1,7,9.1,7.5c0,1.4,0.2,3.5,0.2,4.9c0,0.4,0.3,0.5,0.7,0.5c0.3,0,0.7-0.2,0.7-0.5
			c0-1.4,0.2-3.5,0.2-4.9C10.9,7,10.5,6.8,10,6.8z"/>
	</g>
</g>
<g>
	<g>
		<path class="st0" d="M10,13.8c-0.5,0-0.9,0.4-0.9,0.9c0,0.5,0.4,0.9,0.9,0.9c0.5,0,0.9-0.4,0.9-0.9C10.9,14.2,10.5,13.8,10,13.8z"
			/>
	</g>
</g>
</svg>
