<?xml version="1.0" encoding="utf-8"?>
<!-- Generator: Adobe Illustrator 22.0.1, SVG Export Plug-In . SVG Version: 6.00 Build 0)  -->
<svg version="1.1" id="Layer_1" xmlns="http://www.w3.org/2000/svg" xmlns:xlink="http://www.w3.org/1999/xlink" x="0px" y="0px"
	 viewBox="0 0 20 20" style="enable-background:new 0 0 20 20;" xml:space="preserve">
<style type="text/css">
	.st0{fill:#435166;}
</style>
<path class="st0" d="M6.3,8.8c0.6,0,1.1-0.5,1.1-1.1c0-0.6-0.5-1.1-1.1-1.1H5C5.5,5.7,6.1,5,6.8,4.5c1.1-0.8,2.4-1.3,3.8-1.3
	c0.7,0,1.4,0.1,2.1,0.4c0.7,0.2,1.3,0.6,1.8,1c1.1,0.9,1.9,2.1,2.2,3.4c0.1,0.5,0.6,0.8,1.1,0.8c0.1,0,0.2,0,0.3,0
	c0.6-0.1,1-0.7,0.8-1.3c-0.2-0.9-0.6-1.8-1.1-2.6c-0.5-0.8-1.1-1.5-1.9-2.1c-0.7-0.6-1.6-1-2.5-1.4C12.6,1.2,11.6,1,10.6,1
	C9.7,1,8.8,1.2,7.9,1.5C7,1.7,6.2,2.2,5.5,2.7C4.8,3.2,4.1,3.9,3.6,4.6C3.5,4.8,3.3,5,3.2,5.3V3.5c0-0.6-0.5-1.1-1.1-1.1
	C1.5,2.4,1,2.9,1,3.5v4.2c0,0.6,0.5,1.1,1.1,1.1L6.3,8.8z"/>
<path class="st0" d="M17.9,11.2h-4.1c-0.6,0-1.1,0.5-1.1,1.1c0,0.6,0.5,1.1,1.1,1.1H15c-0.5,0.9-1.2,1.7-2.1,2.3c-1,0.7-2.2,1-3.5,1
	c-0.7,0-1.4-0.1-2.1-0.4c-0.7-0.2-1.3-0.6-1.8-1c-1.1-0.9-1.9-2.1-2.2-3.4c-0.1-0.6-0.7-1-1.3-0.8c-0.6,0.1-1,0.7-0.8,1.3
	c0.2,0.9,0.6,1.8,1.1,2.6c0.5,0.8,1.1,1.5,1.9,2.1c0.7,0.6,1.6,1,2.5,1.4C7.4,18.8,8.4,19,9.3,19c0,0,0,0,0,0c0,0,0,0,0,0
	c0,0,0,0,0,0c0,0,0,0,0,0c1.7,0,3.3-0.5,4.7-1.4c1.1-0.7,2-1.7,2.7-2.9v1.8c0,0.6,0.5,1.1,1.1,1.1c0.6,0,1.1-0.5,1.1-1.1v-4.2
	C19,11.7,18.5,11.2,17.9,11.2z"/>
</svg>
