<svg width="841" height="272" viewBox="0 0 841 272" fill="none" xmlns="http://www.w3.org/2000/svg">
<g filter="url(#filter0_d)">
<path fill-rule="evenodd" clip-rule="evenodd" d="M4 18.4091C122.419 19.2841 243.988 16.6625 359.867 19.7232C358.229 23.3156 353.159 21.6482 350.643 21.7043C263.851 23.5104 179.341 21.7043 92.9651 21.7043C68.5845 21.7043 41.1489 20.3011 14.5456 21.7043C10.5229 21.9156 6.63887 20.7402 6.63887 24.9962C6.63887 29.3712 10.4898 28.024 13.8817 28.2915C16.7782 28.5226 22.875 28.2915 25.0878 28.2915C137.34 28.2915 251.452 27.2019 359.867 29.6122C243.447 31.1442 124.156 29.8301 6.63887 30.2725V239.122C107.028 239.561 205.868 238.244 305.158 239.779C218.538 240.985 129.084 240.436 40.9045 240.436C35.1578 240.436 20.1205 239.023 11.91 240.436C7.33574 241.222 5.93539 240.436 6.63887 245.046C7.26968 249.223 7.39189 247.773 12.5672 248.341C15.6685 248.681 19.7143 248.341 22.4489 248.341H287.366C293.985 248.341 301.621 246.723 305.158 250.319C205.733 253.386 104.597 250.765 4 251.636V18.4091Z" fill="white"/>
<path fill-rule="evenodd" clip-rule="evenodd" d="M837 18.4091V250.982C814.693 252.178 782.079 251.636 757.236 251.636C686.634 251.636 614.536 254.456 545.688 251.636C543.765 251.557 538.953 253.297 538.445 249.658C621.921 247.248 715.586 248.341 800.753 248.341C805.997 248.341 821.319 249.381 828.433 248.341C833 247.674 833.704 248.991 833.704 244.392C833.704 240.083 833.189 241.176 829.093 240.436C826.121 239.902 821.424 240.436 819.869 240.436C727.697 240.436 627.337 240.985 538.448 239.779C633.342 238.244 737.704 239.561 833.704 239.122V30.2725C720.335 29.3976 593.911 32.0192 483.072 28.9485C538.788 27.7434 595.654 28.2915 654.419 28.2915C707.762 28.2915 772.141 31.1211 825.797 28.2915C830.21 28.057 833.707 29.1004 833.707 24.9962C833.707 20.6808 830.243 22.0048 826.458 21.7043C822.356 21.3775 817.6 21.7043 815.919 21.7043H502.851C495.562 21.7043 487.329 23.3387 483.078 19.7232C594.901 16.6625 724.107 19.2841 837 18.4091Z" fill="white"/>
<path d="M79.3382 179.954L84.7447 182.651V187.307H64.1754V182.651L69.5753 179.805C77.0857 148.735 85.4878 112.415 93.1468 81.4967H108.613L132.786 179.353L138.186 182.654V187.31H111.467V183.407L116.87 180.105L111.916 158.944H84.2889L79.3382 179.954ZM86.2441 150.382H109.816L98.1009 99.8053H97.9522L86.2441 150.382Z" fill="white"/>
<path d="M206.185 125.318C206.185 144.083 192.826 149.035 176.312 149.035H167.005V178.451L173.611 182.955V187.303H145.085V182.958L151.839 178.455V90.3522L146.139 86.4495V82.0977H176.61C192.826 82.0977 206.185 88.2489 206.185 106.561V125.318ZM167.005 91.4022V140.332H176.61C186.673 140.332 190.577 134.93 190.577 125.322V106.564C190.577 96.9591 186.97 91.4055 176.765 91.4055H167.005V91.4022Z" fill="white"/>
<path d="M279.146 125.318C279.146 144.083 265.786 149.035 249.273 149.035H239.966V178.451L246.571 182.955V187.303H218.045V182.958L224.799 178.455V90.3522L219.099 86.4495V82.0977H249.57C265.786 82.0977 279.146 88.2489 279.146 106.561V125.318ZM239.962 91.4022V140.332H249.566C259.63 140.332 263.534 134.93 263.534 125.322V106.564C263.534 96.9591 259.927 91.4055 249.722 91.4055H239.962V91.4022Z" fill="white"/>
<path d="M290.999 187.307V182.955L297.753 178.455V90.3522L292.049 86.4495V82.0977H319.072V86.4495L313.368 90.3522V172.749C313.368 175.153 312.771 176.506 310.214 177.401V178.157H334.238L339.341 163.745H345.946V187.31H290.999V187.307Z" fill="white"/>
<path d="M355.402 187.307V182.955L362.156 178.455V89.8998L356.446 85.9971V82.0977H409.897V105.659H402.39L398.182 90.9498H377.768V130.423H392.184L396.085 122.168H400.59V147.533H396.085L392.184 139.579H377.768V172.749C377.768 175.153 377.167 176.506 374.617 177.401V178.157H400.137L405.24 163.745H411.845V187.31H355.402V187.307Z" fill="white"/>
<path d="M452.383 178.752C460.336 178.752 463.787 173.498 463.787 165.993V153.239C463.787 133.573 425.806 141.53 425.806 115.264V102.509C425.806 86.7532 437.365 80.8958 449.526 80.8958C455.53 80.8958 461.693 82.1009 466.647 87.6513H467.248L468.447 81.949H478.652V110.166H463.192V102.509C463.192 95.0077 459.137 90.9531 452.082 90.9531C445.028 90.9531 441.424 95.3082 441.424 102.509V115.264C441.424 133.428 479.706 125.322 479.706 153.09V165.997C479.706 182.658 465.891 188.961 451.633 188.961C437.22 188.961 424.756 181.905 424.756 165.848V157.594H441.725V165.997C441.722 175.001 445.622 178.752 452.383 178.752Z" fill="white"/>
<path d="M529.686 91.5508V177.55L536.291 182.202V187.307H507.32V182.202L513.925 177.55V91.5508H502.663L497.858 108.813H490.655L491.252 82.0977H552.353L552.96 108.813H545.747L540.644 91.5508H529.686Z" fill="white"/>
<path d="M626.066 160.74C626.066 177.702 614.357 188.806 595.889 188.806C577.575 188.806 565.864 177.55 565.864 160.74V108.512C565.864 91.7027 577.575 80.4468 595.889 80.4468C614.357 80.4468 626.066 91.5508 626.066 108.512V160.74ZM581.479 160.74C581.479 172.449 585.981 178.752 595.889 178.752C605.945 178.752 610.602 170.497 610.602 160.74V108.512C610.602 98.6068 605.945 90.5008 595.889 90.5008C585.981 90.5008 581.479 96.6554 581.479 108.512V160.74Z" fill="white"/>
<path d="M665.543 182.654V187.307H642.127V182.654L648.428 178.752V90.3522L642.725 86.4495V82.0977H660.437C667.042 82.0977 668.241 82.6986 669.893 88.4008L684.606 135.227L691.36 164.643H691.664C691.664 156.993 691.063 146.935 691.063 139.279V90.6527L685.353 86.7499V82.0977H707.428V86.7499L701.718 90.6527V187.307H688.811C685.204 187.307 683.249 185.203 682.354 182.202L657.881 98.1544L657.428 98.3063L659.235 113.313V178.752L665.543 182.654Z" fill="white"/>
<path d="M720.335 187.307V182.955L727.089 178.455V89.8998L721.385 85.9971V82.0977H774.83V105.659H767.329L763.125 90.9498H742.708V130.423H757.117L761.021 122.168H765.523V147.533H761.021L757.117 139.579H742.708V172.749C742.708 175.153 742.106 176.506 739.553 177.401V178.157H765.073L770.183 163.745H776.788V187.31H720.335V187.307Z" fill="white"/>
<path d="M332.96 265.646V267.382H324.277V265.646L326.632 264.193V231.195L324.386 229.738V228.114H332.62C334.697 228.114 335.427 228.619 335.929 230.749C338 241.787 339.232 249.18 340.523 260.161H340.632L345.626 230.58C346.072 228.507 346.798 228.114 348.929 228.17C352.122 228.17 353.863 228.114 357.057 228.114V229.738L354.87 231.195V264.081L357.334 265.761V267.386H346.633V265.761L349.097 264.081V237.693L349.262 232.093H349.044L342.878 266.828H338.228C337.045 266.828 336.491 266.326 336.325 265.259C334.473 254.109 332.679 243.58 330.602 232.482H330.324L330.602 239.713V264.193L332.96 265.646Z" fill="white"/>
<path d="M365.013 267.383V265.758L367.536 264.077V231.023L365.406 229.567V228.111H385.351V236.907H382.554L380.985 231.419H373.359V246.152H378.739L380.199 243.068H381.88V252.538H380.199L378.739 249.573H373.359V261.954C373.359 262.849 373.141 263.351 372.186 263.684V263.965H381.715L383.617 258.586H386.081V267.383H365.013Z" fill="white"/>
<path d="M397.066 264.639L399.084 265.649V267.383H391.408V265.649L393.419 264.583C396.227 252.99 399.361 239.43 402.218 227.89H407.991L417.017 264.418L419.035 265.653V267.386H409.058V265.93L411.076 264.699L409.223 256.797H398.915L397.066 264.639ZM399.645 253.601H408.443L404.071 234.718H404.011L399.645 253.601Z" fill="white"/>
<path d="M435.787 231.64V263.744L438.25 265.477V267.383H427.437V265.477L429.904 263.744V231.64H425.7L423.907 238.082H421.215L421.443 228.111H444.255L444.469 238.082H441.781L439.879 231.64H435.787Z" fill="white"/>
<path d="M486.78 238.981H480.954V237.917C480.954 234.388 479.884 231.479 475.852 231.416C473.223 231.416 470.809 233.209 470.809 238.139V257.58C470.809 262.229 472.665 264.302 476.02 264.302C480.109 264.302 481.291 261.951 481.291 257.973V255.899H487.121V258.025C487.121 264.976 482.358 268 476.08 268C469.801 268 464.986 264.695 464.986 257.58V238.139C464.986 231.476 469.075 227.721 475.69 227.721C478.094 227.721 480.614 228.279 482.302 230.128H482.467L482.92 227.995H486.784V238.981H486.78Z" fill="white"/>
<path d="M516.257 258.474C516.257 264.19 512.277 267.888 506.055 267.888C499.836 267.888 495.856 264.134 495.856 258.474V240.886C495.856 235.226 499.836 231.472 506.055 231.472C512.277 231.472 516.257 235.167 516.257 240.886V258.474ZM501.345 258.474C501.345 262.341 502.802 264.358 506.055 264.358C509.308 264.358 510.814 261.671 510.814 258.474V240.886C510.814 237.64 509.305 235.002 506.055 235.002C502.805 235.002 501.345 236.963 501.345 240.886V258.474Z" fill="white"/>
<path d="M530.148 264.86C530.148 268.839 524.553 268.839 524.553 264.86C524.55 260.941 530.148 260.941 530.148 264.86Z" fill="white"/>
<path d="M393.36 7.53281V39.6364L395.824 41.3698V43.275H385.004V41.3698L387.474 39.6364V7.53281H383.267L381.473 13.9747H378.788L379.01 4.00317H401.825L402.043 13.9747H399.351L397.445 7.53281H393.36Z" fill="white"/>
<path d="M408.936 5.6278V4H418.85V5.6278L416.72 7.0839V21.6515H425.802V7.0839L423.669 5.6278V4H433.59V5.6278L431.463 7.0839V40.3068L433.983 41.6506V43.2751H423.332V41.6506L425.802 40.3068V24.8444H416.72V40.3068L419.247 41.6506V43.2751H408.542V41.6506L411.066 40.3068V7.0839L408.936 5.6278Z" fill="white"/>
<path d="M441.603 43.2751V41.6506L444.126 39.97V6.9155L441.996 5.4594V4H461.941V12.7993H459.14L457.571 7.30512H449.942V22.0411H455.325L456.782 18.9605H458.463V28.4301H456.782L455.325 25.4585H449.942V37.8403C449.942 38.7384 449.727 39.2403 448.773 39.5771V39.8577H458.301L460.204 34.4791H462.667V43.2751H441.603Z" fill="white"/>
</g>
<defs>
<filter id="filter0_d" x="0" y="0" width="841" height="272" filterUnits="userSpaceOnUse" color-interpolation-filters="sRGB">
<feFlood flood-opacity="0" result="BackgroundImageFix"/>
<feColorMatrix in="SourceAlpha" type="matrix" values="0 0 0 0 0 0 0 0 0 0 0 0 0 0 0 0 0 0 127 0"/>
<feOffset/>
<feGaussianBlur stdDeviation="2"/>
<feColorMatrix type="matrix" values="0 0 0 0 0 0 0 0 0 0 0 0 0 0 0 0 0 0 0.25 0"/>
<feBlend mode="normal" in2="BackgroundImageFix" result="effect1_dropShadow"/>
<feBlend mode="normal" in="SourceGraphic" in2="effect1_dropShadow" result="shape"/>
</filter>
</defs>
</svg>
