<?xml version="1.0" encoding="utf-8"?>
<!-- Generator: Adobe Illustrator 22.0.1, SVG Export Plug-In . SVG Version: 6.00 Build 0)  -->
<svg version="1.1" id="Layer_1" xmlns="http://www.w3.org/2000/svg" xmlns:xlink="http://www.w3.org/1999/xlink" x="0px" y="0px"
	 viewBox="0 0 20 20" style="enable-background:new 0 0 20 20;" xml:space="preserve">
<style type="text/css">
	.st0{fill:#FFFFFF;stroke:#FFFFFF;stroke-width:0.25;}
</style>
<path class="st0" d="M12.1,19.5h2.8c0.1,0,0.2,0,0.2-0.1c0.1-0.1,0.1-0.1,0.1-0.2v-0.9h1.4c0.1,0,0.2,0,0.2-0.1
	C17,18.1,17,18,17,17.9V0.8c0-0.1,0-0.2-0.1-0.2c-0.1-0.1-0.2-0.1-0.2-0.1H3.4c-0.1,0-0.2,0-0.2,0.1C3,0.7,3,0.7,3,0.8v17.1
	c0,0.1,0,0.2,0.1,0.2c0.1,0.1,0.2,0.1,0.2,0.1h1.4v0.9c0,0.1,0,0.2,0.1,0.2c0.1,0.1,0.2,0.1,0.2,0.1h2.8c0.1,0,0.2,0,0.2-0.1
	c0.1-0.1,0.1-0.1,0.1-0.2v-0.9h3.5v0.9c0,0.1,0,0.2,0.1,0.2C11.9,19.5,12,19.5,12.1,19.5z M14.6,18.9h-2.1v-0.6h2.1V18.9z M3.7,1.1
	h12.6V3H3.7V1.1z M7.6,18.9H5.4v-0.6h2.1V18.9z M3.7,17.6V3.7h12.6v13.9H3.7z"/>
<path class="st0" d="M4.8,10h10.5c0.1,0,0.2,0,0.2-0.1c0.1-0.1,0.1-0.1,0.1-0.2V4.6c0-0.1,0-0.2-0.1-0.2c-0.1-0.1-0.2-0.1-0.2-0.1
	H4.8c-0.1,0-0.2,0-0.2,0.1C4.4,4.5,4.4,4.5,4.4,4.6v5.1c0,0.1,0,0.2,0.1,0.2C4.6,10,4.7,10,4.8,10z M7.6,9.4H6.8V9.1
	c0-0.1,0-0.2,0.1-0.2C7,8.8,7.1,8.7,7.2,8.7c0.1,0,0.2,0,0.2,0.1C7.5,8.9,7.6,9,7.6,9.1V9.4z M10.4,9.4H9.6V9.1c0-0.1,0-0.2,0.1-0.2
	C9.8,8.8,9.9,8.7,10,8.7s0.2,0,0.2,0.1c0.1,0.1,0.1,0.1,0.1,0.2V9.4z M13.2,9.4h-0.7V9.1c0-0.1,0-0.2,0.1-0.2
	c0.1-0.1,0.2-0.1,0.2-0.1c0.1,0,0.2,0,0.2,0.1c0.1,0.1,0.1,0.1,0.1,0.2V9.4z M5.1,4.9h9.8v1.9h-1V6.5c0-0.3-0.1-0.5-0.3-0.7
	c-0.2-0.2-0.5-0.3-0.7-0.3c-0.3,0-0.5,0.1-0.7,0.3c-0.2,0.2-0.3,0.4-0.3,0.7v0.3H11V6.5c0-0.3-0.1-0.5-0.3-0.7
	c-0.2-0.2-0.5-0.3-0.7-0.3S9.5,5.7,9.3,5.8C9.1,6,9,6.3,9,6.5v0.3H8.2V6.5c0-0.3-0.1-0.5-0.3-0.7C7.7,5.7,7.5,5.6,7.2,5.6
	c-0.3,0-0.5,0.1-0.7,0.3C6.3,6,6.2,6.3,6.2,6.5v0.3H5.1V4.9z M13.2,6.5v0.3h-0.7V6.5c0-0.1,0-0.2,0.1-0.2c0.1-0.1,0.2-0.1,0.2-0.1
	c0.1,0,0.2,0,0.2,0.1C13.1,6.4,13.2,6.4,13.2,6.5z M10.4,6.5v0.3H9.6V6.5c0-0.1,0-0.2,0.1-0.2C9.8,6.2,9.9,6.2,10,6.2s0.2,0,0.2,0.1
	C10.3,6.4,10.4,6.4,10.4,6.5z M7.6,6.5v0.3H6.8V6.5c0-0.1,0-0.2,0.1-0.2C7,6.2,7.1,6.2,7.2,6.2c0.1,0,0.2,0,0.2,0.1
	C7.5,6.4,7.6,6.4,7.6,6.5z M5.1,7.5h9.8v1.9h-1V9.1c0-0.3-0.1-0.5-0.3-0.7c-0.2-0.2-0.5-0.3-0.7-0.3c-0.3,0-0.5,0.1-0.7,0.3
	c-0.2,0.2-0.3,0.4-0.3,0.7v0.3H11V9.1c0-0.3-0.1-0.5-0.3-0.7c-0.2-0.2-0.5-0.3-0.7-0.3S9.5,8.2,9.3,8.4C9.1,8.6,9,8.8,9,9.1v0.3H8.2
	V9.1c0-0.3-0.1-0.5-0.3-0.7C7.7,8.2,7.5,8.1,7.2,8.1c-0.3,0-0.5,0.1-0.7,0.3C6.3,8.6,6.2,8.8,6.2,9.1v0.3H5.1V7.5z"/>
<path class="st0" d="M10.4,1.8H9.6v0.6h0.7V1.8z"/>
<path class="st0" d="M10.3,13.2H9.7v0.6h0.7V13.2z"/>
<path class="st0" d="M10.4,13.2H9.6v0.6h0.7V13.2z"/>
<path class="st0" d="M10.3,14.4H9.7v0.6h0.7V14.4z"/>
<path class="st0" d="M10.4,14.4H9.6v0.6h0.7V14.4z"/>
<path class="st0" d="M11.4,10.6H8.6c-0.1,0-0.2,0-0.2,0.1s-0.1,0.1-0.1,0.2v1.3c0,0.1,0,0.2,0.1,0.2c0.1,0.1,0.2,0.1,0.2,0.1h2.8
	c0.1,0,0.2,0,0.2-0.1c0.1-0.1,0.1-0.1,0.1-0.2v-1.3c0-0.1,0-0.2-0.1-0.2C11.6,10.7,11.5,10.6,11.4,10.6z M11,11.9H9v-0.6H11V11.9z"
	/>
<path class="st0" d="M13.8,13.2H6.2c-0.1,0-0.2,0-0.2,0.1c-0.1,0.1-0.1,0.1-0.1,0.2v1.9c0,0.4,0.2,0.8,0.5,1.1
	C6.6,16.8,7.1,17,7.6,17h4.9c0.5,0,0.9-0.2,1.2-0.5c0.3-0.3,0.5-0.7,0.5-1.1v-1.9c0-0.1,0-0.2-0.1-0.2C14,13.2,13.9,13.2,13.8,13.2z
	 M13.5,13.8v1.3h-7v-1.3H13.5z M12.4,16.3H7.6c-0.2,0-0.4-0.1-0.6-0.2c-0.2-0.1-0.3-0.3-0.4-0.5h6.9c-0.1,0.2-0.2,0.3-0.4,0.5
	C12.9,16.3,12.7,16.3,12.4,16.3z"/>
</svg>
