<?xml version="1.0" encoding="utf-8"?>
<!-- Generator: Adobe Illustrator 22.0.1, SVG Export Plug-In . SVG Version: 6.00 Build 0)  -->
<svg version="1.1" id="Layer_1" xmlns="http://www.w3.org/2000/svg" xmlns:xlink="http://www.w3.org/1999/xlink" x="0px" y="0px"
	 viewBox="0 0 841 272" style="enable-background:new 0 0 841 272;" xml:space="preserve">
<style type="text/css">
	.st0{fill:#041E41;}
</style>
<g>
	<path class="st0" d="M4,18.4c118.4,0.9,240-1.7,355.9,1.3c-1.6,3.6-6.7,1.9-9.2,2c-86.8,1.8-171.3,0-257.7,0
		c-24.4,0-51.8-1.4-78.4,0c-4,0.2-7.9-1-7.9,3.3c0,4.4,3.9,3,7.2,3.3c2.9,0.2,9,0,11.2,0c112.3,0,226.4-1.1,334.8,1.3
		c-116.4,1.5-235.7,0.2-353.2,0.7v208.8c100.4,0.4,199.2-0.9,298.5,0.7c-86.6,1.2-176.1,0.7-264.3,0.7c-5.7,0-20.8-1.4-29,0
		c-4.6,0.8-6,0-5.3,4.6c0.6,4.2,0.8,2.7,5.9,3.3c3.1,0.3,7.1,0,9.9,0h264.9c6.6,0,14.3-1.6,17.8,2c-99.4,3.1-200.6,0.4-301.2,1.3
		V18.4z"/>
	<path class="st0" d="M837,18.4V251c-22.3,1.2-54.9,0.7-79.8,0.7c-70.6,0-142.7,2.8-211.5,0c-1.9-0.1-6.7,1.7-7.2-2
		c83.5-2.4,177.1-1.3,262.3-1.3c5.2,0,20.6,1,27.7,0c4.6-0.7,5.3,0.6,5.3-3.9c0-4.3-0.5-3.2-4.6-4c-3-0.5-7.7,0-9.2,0
		c-92.2,0-192.5,0.5-281.4-0.7c94.9-1.5,199.3-0.2,295.3-0.7V30.3c-113.4-0.9-239.8,1.7-350.6-1.3c55.7-1.2,112.6-0.7,171.3-0.7
		c53.3,0,117.7,2.8,171.4,0c4.4-0.2,7.9,0.8,7.9-3.3c0-4.3-3.5-3-7.2-3.3c-4.1-0.3-8.9,0-10.5,0H502.9c-7.3,0-15.5,1.6-19.8-2
		C594.9,16.7,724.1,19.3,837,18.4z"/>
	<path class="st0" d="M79.3,180l5.4,2.7v4.7H64.2v-4.7l5.4-2.8c7.5-31.1,15.9-67.4,23.6-98.3h15.5l24.2,97.9l5.4,3.3v4.7h-26.7v-3.9
		l5.4-3.3l-5-21.2H84.3L79.3,180z M86.2,150.4h23.6L98.1,99.8H98L86.2,150.4z"/>
	<path class="st0" d="M206.2,125.3c0,18.8-13.4,23.7-29.9,23.7H167v29.4l6.6,4.5v4.3h-28.5V183l6.8-4.5V90.4l-5.7-3.9v-4.4h30.5
		c16.2,0,29.6,6.2,29.6,24.5V125.3z M167,91.4v48.9h9.6c10.1,0,14-5.4,14-15v-18.8c0-9.6-3.6-15.2-13.8-15.2L167,91.4L167,91.4z"/>
	<path class="st0" d="M279.1,125.3c0,18.8-13.4,23.7-29.9,23.7H240v29.4l6.6,4.5v4.3H218V183l6.8-4.5V90.4l-5.7-3.9v-4.4h30.5
		c16.2,0,29.6,6.2,29.6,24.5V125.3z M240,91.4v48.9h9.6c10.1,0,14-5.4,14-15v-18.8c0-9.6-3.6-15.2-13.8-15.2L240,91.4L240,91.4z"/>
	<path class="st0" d="M291,187.3V183l6.8-4.5V90.4l-5.7-3.9v-4.4h27v4.4l-5.7,3.9v82.4c0,2.4-0.6,3.8-3.2,4.7v0.8h24l5.1-14.4h6.6
		v23.6L291,187.3L291,187.3z"/>
	<path class="st0" d="M355.4,187.3V183l6.8-4.5V89.9l-5.7-3.9v-3.9h53.5v23.6h-7.5l-4.2-14.7h-20.4v39.5h14.4l3.9-8.3h4.5v25.4h-4.5
		l-3.9-8h-14.4v33.2c0,2.4-0.6,3.8-3.2,4.7v0.8h25.5l5.1-14.4h6.6v23.6L355.4,187.3L355.4,187.3z"/>
	<path class="st0" d="M452.4,178.8c8,0,11.4-5.3,11.4-12.8v-12.8c0-19.7-38-11.7-38-38v-12.8c0-15.8,11.6-21.6,23.7-21.6
		c6,0,12.2,1.2,17.1,6.8h0.6l1.2-5.7h10.2v28.2h-15.5v-7.7c0-7.5-4.1-11.6-11.1-11.6c-7.1,0-10.7,4.4-10.7,11.6v12.8
		c0,18.2,38.3,10.1,38.3,37.8V166c0,16.7-13.8,23-28.1,23c-14.4,0-26.9-7.1-26.9-23.1v-8.3h17v8.4
		C441.7,175,445.6,178.8,452.4,178.8z"/>
	<path class="st0" d="M529.7,91.6v86l6.6,4.7v5.1h-29v-5.1l6.6-4.7v-86h-11.3l-4.8,17.3h-7.2l0.6-26.7h61.1l0.6,26.7h-7.2l-5.1-17.3
		H529.7z"/>
	<path class="st0" d="M626.1,160.7c0,17-11.7,28.1-30.2,28.1c-18.3,0-30-11.3-30-28.1v-52.2c0-16.8,11.7-28.1,30-28.1
		c18.5,0,30.2,11.1,30.2,28.1V160.7z M581.5,160.7c0,11.7,4.5,18,14.4,18c10.1,0,14.7-8.3,14.7-18v-52.2c0-9.9-4.7-18-14.7-18
		c-9.9,0-14.4,6.2-14.4,18V160.7z"/>
	<path class="st0" d="M665.5,182.7v4.7h-23.4v-4.7l6.3-3.9V90.4l-5.7-3.9v-4.4h17.7c6.6,0,7.8,0.6,9.5,6.3l14.7,46.8l6.8,29.4h0.3
		c0-7.7-0.6-17.7-0.6-25.4V90.7l-5.7-3.9v-4.7h22.1v4.7l-5.7,3.9v96.7h-12.9c-3.6,0-5.6-2.1-6.5-5.1l-24.5-84l-0.5,0.2l1.8,15v65.4
		L665.5,182.7z"/>
	<path class="st0" d="M720.3,187.3V183l6.8-4.5V89.9l-5.7-3.9v-3.9h53.4v23.6h-7.5l-4.2-14.7h-20.4v39.5h14.4l3.9-8.3h4.5v25.4H761
		l-3.9-8h-14.4v33.2c0,2.4-0.6,3.8-3.2,4.7v0.8h25.5l5.1-14.4h6.6v23.6L720.3,187.3L720.3,187.3z"/>
	<path class="st0" d="M333,265.6v1.7h-8.7v-1.7l2.4-1.5v-33l-2.2-1.5v-1.6h8.2c2.1,0,2.8,0.5,3.3,2.6c2.1,11,3.3,18.4,4.6,29.4h0.1
		l5-29.6c0.4-2.1,1.2-2.5,3.3-2.4c3.2,0,4.9-0.1,8.1-0.1v1.6l-2.2,1.5v32.9l2.5,1.7v1.6h-10.7v-1.6l2.5-1.7v-26.4l0.2-5.6H349
		l-6.2,34.7h-4.6c-1.2,0-1.7-0.5-1.9-1.6c-1.9-11.2-3.6-21.7-5.7-32.8h-0.3l0.3,7.2v24.5L333,265.6z"/>
	<path class="st0" d="M365,267.4v-1.6l2.5-1.7V231l-2.1-1.5v-1.5h19.9v8.8h-2.8l-1.6-5.5h-7.6v14.7h5.4l1.5-3.1h1.7v9.5h-1.7l-1.5-3
		h-5.4V262c0,0.9-0.2,1.4-1.2,1.7v0.3h9.5l1.9-5.4h2.5v8.8H365z"/>
	<path class="st0" d="M397.1,264.6l2,1v1.7h-7.7v-1.7l2-1.1c2.8-11.6,5.9-25.2,8.8-36.7h5.8l9,36.5l2,1.2v1.7h-10v-1.5l2-1.2
		l-1.9-7.9h-10.3L397.1,264.6z M399.6,253.6h8.8l-4.4-18.9H404L399.6,253.6z"/>
	<path class="st0" d="M435.8,231.6v32.1l2.5,1.7v1.9h-10.8v-1.9l2.5-1.7v-32.1h-4.2l-1.8,6.4h-2.7l0.2-10h22.8l0.2,10h-2.7l-1.9-6.4
		H435.8z"/>
	<path class="st0" d="M486.8,239H481v-1.1c0-3.5-1.1-6.4-5.1-6.5c-2.6,0-5,1.8-5,6.7v19.4c0,4.6,1.9,6.7,5.2,6.7
		c4.1,0,5.3-2.4,5.3-6.3v-2.1h5.8v2.1c0,7-4.8,10-11,10c-6.3,0-11.1-3.3-11.1-10.4v-19.4c0-6.7,4.1-10.4,10.7-10.4
		c2.4,0,4.9,0.6,6.6,2.4h0.2l0.5-2.1h3.9L486.8,239L486.8,239z"/>
	<path class="st0" d="M516.3,258.5c0,5.7-4,9.4-10.2,9.4c-6.2,0-10.2-3.8-10.2-9.4v-17.6c0-5.7,4-9.4,10.2-9.4
		c6.2,0,10.2,3.7,10.2,9.4V258.5z M501.3,258.5c0,3.9,1.5,5.9,4.7,5.9c3.3,0,4.8-2.7,4.8-5.9v-17.6c0-3.2-1.5-5.9-4.8-5.9
		s-4.7,2-4.7,5.9V258.5z"/>
	<path class="st0" d="M530.1,264.9c0,4-5.6,4-5.6,0C524.5,260.9,530.1,260.9,530.1,264.9z"/>
	<path class="st0" d="M393.4,7.5v32.1l2.5,1.7v1.9H385v-1.9l2.5-1.7V7.5h-4.2l-1.8,6.4h-2.7L379,4h22.8l0.2,10h-2.7l-1.9-6.4H393.4z
		"/>
	<path class="st0" d="M408.9,5.6V4h9.9v1.6l-2.1,1.5v14.6h9.1V7.1l-2.1-1.5V4h9.9v1.6l-2.1,1.5v33.2l2.5,1.3v1.6h-10.7v-1.6l2.5-1.3
		V24.8h-9.1v15.5l2.5,1.3v1.6h-10.7v-1.6l2.5-1.3V7.1L408.9,5.6z"/>
	<path class="st0" d="M441.6,43.3v-1.6l2.5-1.7V6.9L442,5.5V4h19.9v8.8h-2.8l-1.6-5.5h-7.6V22h5.4l1.5-3.1h1.7v9.5h-1.7l-1.5-3h-5.4
		v12.4c0,0.9-0.2,1.4-1.2,1.7v0.3h9.5l1.9-5.4h2.5v8.8H441.6z"/>
</g>
</svg>
