<?xml version="1.0" encoding="utf-8"?>
<!-- Generator: Adobe Illustrator 22.0.1, SVG Export Plug-In . SVG Version: 6.00 Build 0)  -->
<svg version="1.1" id="Capa_1" xmlns="http://www.w3.org/2000/svg" xmlns:xlink="http://www.w3.org/1999/xlink" x="0px" y="0px"
	 viewBox="0 0 20 20" style="enable-background:new 0 0 20 20;" xml:space="preserve">
<style type="text/css">
	.st0{fill:#FFFFFF;}
	.st1{fill:#C2CFE0;}
</style>
<polygon class="st0" points="5,6.4 4.8,15.5 15.1,15.5 15.1,6.6 11.7,3.2 8.3,3.2 "/>
<path class="st1" d="M10,20c1,0,1.9-0.9,1.9-2H8.1C8.1,19.1,9,20,10,20z M16.1,14V8.5c0-3.1-2-5.6-4.7-6.3V1.5C11.4,0.7,10.8,0,10,0
	S8.6,0.7,8.6,1.5v0.7C5.9,2.9,3.9,5.4,3.9,8.5V14L2,16v1h16v-1L16.1,14z M14.2,15H5.8V8.5C5.8,6,7.6,4,10,4s4.2,2,4.2,4.5V15z"/>
</svg>
