<?xml version="1.0" encoding="utf-8"?>
<!-- Generator: Adobe Illustrator 22.0.1, SVG Export Plug-In . SVG Version: 6.00 Build 0)  -->
<svg version="1.1" id="Layer_1" xmlns="http://www.w3.org/2000/svg" xmlns:xlink="http://www.w3.org/1999/xlink" x="0px" y="0px"
	 viewBox="0 0 20 20" style="enable-background:new 0 0 20 20;" xml:space="preserve">
<style type="text/css">
	.st0{fill:#FFFFFF;stroke:#FFFFFF;stroke-width:0.5;}
</style>
<g>
	<path class="st0" d="M19.5,4.8c-0.2-0.3-0.5-0.5-0.9-0.5h-15V0.7c0-0.2-0.2-0.4-0.4-0.4H0.9c-0.2,0-0.4,0.2-0.4,0.4
		s0.2,0.4,0.4,0.4h1.9v3.6v9.2v0.3c0,0.6,0.5,1,1,1h10.5c0.4,0,0.7-0.2,0.9-0.5l4.4-8.8C19.7,5.4,19.7,5.1,19.5,4.8z M18.9,5.4
		l-4.4,8.8c0,0.1-0.1,0.1-0.2,0.1H3.9c-0.1,0-0.3-0.1-0.3-0.3v-0.3V5h15c0.2,0,0.2,0.1,0.3,0.1C18.9,5.2,18.9,5.3,18.9,5.4z"/>
	<path class="st0" d="M5,15.8c-1.1,0-1.9,0.9-1.9,2c0,1.1,0.9,2,1.9,2s1.9-0.9,1.9-2C6.9,16.7,6,15.8,5,15.8z M5,19.1
		c-0.7,0-1.3-0.6-1.3-1.3c0-0.7,0.6-1.3,1.3-1.3s1.3,0.6,1.3,1.3S5.6,19.1,5,19.1z"/>
	<path class="st0" d="M13,15.8c-1.1,0-1.9,0.9-1.9,2c0,1.1,0.9,2,1.9,2s1.9-0.9,1.9-2C15,16.7,14.1,15.8,13,15.8z M13,19.1
		c-0.7,0-1.3-0.6-1.3-1.3c0-0.7,0.6-1.3,1.3-1.3c0.7,0,1.3,0.6,1.3,1.3S13.7,19.1,13,19.1z"/>
</g>
</svg>
