<?xml version="1.0" encoding="utf-8"?>
<!-- Generator: Adobe Illustrator 22.0.1, SVG Export Plug-In . SVG Version: 6.00 Build 0)  -->
<svg version="1.1" id="Layer_1" xmlns="http://www.w3.org/2000/svg" xmlns:xlink="http://www.w3.org/1999/xlink" x="0px" y="0px"
	 viewBox="0 0 20 20" style="enable-background:new 0 0 20 20;" xml:space="preserve">
<style type="text/css">
	.st0{fill:#8893A3;stroke:#8893A3;stroke-width:0.25;}
	.st1{fill:#8893A3;stroke:#8893A3;stroke-width:0.5;}
</style>
<path class="st0" d="M19.2,13.8V6.8c0-0.9-0.8-1.7-1.7-1.7h-1.8V1.6c0-0.6-0.5-1.1-1.1-1.1H5.4C4.8,0.5,4.3,1,4.3,1.6v3.5H2.5
	c-0.9,0-1.7,0.7-1.7,1.7v6.9c0,0.9,0.8,1.7,1.7,1.7h1.8v3c0,0.6,0.5,1.1,1.1,1.1h9.2c0.6,0,1.1-0.5,1.1-1.1v-3h1.8
	C18.4,15.4,19.2,14.7,19.2,13.8z M5.2,1.6c0-0.1,0.1-0.2,0.2-0.2h9.2c0.1,0,0.2,0.1,0.2,0.2v3.5H5.2V1.6z M14.8,18.4
	c0,0.1-0.1,0.2-0.2,0.2H5.4c-0.1,0-0.2-0.1-0.2-0.2v-7.6h9.5L14.8,18.4L14.8,18.4z M15.2,9.8H4.8c-0.3,0-0.5,0.2-0.5,0.5v4.2H2.5
	c-0.4,0-0.7-0.3-0.7-0.7V6.8c0-0.4,0.3-0.7,0.7-0.7h15c0.4,0,0.7,0.3,0.7,0.7v6.9c0,0.4-0.3,0.7-0.7,0.7h-1.8v-4.2
	C15.7,10,15.5,9.8,15.2,9.8z"/>
<path class="st1" d="M3.4,7.8L3.4,7.8L3.4,7.8c0.1-0.1,0.3-0.1,0.4,0c0,0,0.1,0.1,0.1,0.2c0,0.1,0,0.1-0.1,0.2c0,0-0.1,0.1-0.2,0.1
	c-0.1,0-0.1,0-0.2-0.1c0,0-0.1-0.1-0.1-0.2C3.4,7.9,3.4,7.8,3.4,7.8z"/>
<path class="st1" d="M7.3,14.4h5.4c0.1,0,0.3,0.1,0.3,0.3c0,0.1-0.1,0.3-0.3,0.3H7.3c-0.1,0-0.3-0.1-0.3-0.3S7.2,14.4,7.3,14.4z"/>
<path class="st1" d="M7.3,16.6h5.4c0.1,0,0.3,0.1,0.3,0.3c0,0.1-0.1,0.3-0.3,0.3H7.3C7.2,17.1,7,17,7,16.8C7,16.7,7.2,16.6,7.3,16.6
	z"/>
<path class="st1" d="M7.3,12.2h5.4c0.1,0,0.3,0.1,0.3,0.3c0,0.1-0.1,0.3-0.3,0.3H7.3c-0.1,0-0.3-0.1-0.3-0.3
	C7,12.4,7.2,12.2,7.3,12.2z"/>
</svg>
