<?xml version="1.0" encoding="utf-8"?>
<!-- Generator: Adobe Illustrator 22.0.1, SVG Export Plug-In . SVG Version: 6.00 Build 0)  -->
<svg version="1.1" id="Capa_1" xmlns="http://www.w3.org/2000/svg" xmlns:xlink="http://www.w3.org/1999/xlink" x="0px" y="0px"
	 viewBox="0 0 20 20" style="enable-background:new 0 0 20 20;" xml:space="preserve">
<style type="text/css">
	.st0{fill:#0D6086;}
</style>
<path class="st0" d="M5,13.5c0,0.2,0.1,0.3,0.3,0.3h7.9c0.2,0,0.3-0.1,0.3-0.3c0-0.2-0.1-0.3-0.3-0.3H5.3C5.1,13.1,5,13.3,5,13.5z"
	/>
<path class="st0" d="M15,13.8c0.2,0,0.3-0.1,0.3-0.3c0-0.2-0.1-0.3-0.3-0.3h-0.7c-0.2,0-0.3,0.1-0.3,0.3c0,0.2,0.1,0.3,0.3,0.3H15z"
	/>
<path class="st0" d="M7.1,4.4L8,5.2c0.1,0.1,0.3,0.1,0.4,0L9.6,4v7.6c0,0.2,0.1,0.3,0.3,0.3h1.2c0.2,0,0.3-0.1,0.3-0.3V4l1.4,1.2
	c0.1,0.1,0.3,0.1,0.5,0l0.9-0.9c0.1-0.1,0.1-0.3,0-0.5l0,0l-3.3-3.3c-0.1-0.1-0.3-0.1-0.5,0L7.1,3.9C7,4,7,4.2,7.1,4.4L7.1,4.4z
	 M10.7,1.3l2.8,2.8L13,4.6l-1.6-1.5c-0.1-0.1-0.3-0.1-0.5,0c0,0,0,0.1,0,0.2v8h-0.7v-8C10.3,3.1,10.2,3,10,3C9.9,3,9.8,3,9.8,3.1
	L8.2,4.6L7.7,4.1L10.7,1.3z"/>
<path class="st0" d="M18.5,4.3H15c-0.1,0-0.3,0.1-0.3,0.3c0,0.2,0.1,0.3,0.3,0.3h3.5c0.2,0,0.3,0.1,0.3,0.3c0,0.2-0.1,0.4-0.3,0.4
	h-6c-0.2,0-0.3,0.1-0.3,0.3c0,0.2,0.1,0.3,0.3,0.3h5.6l-2.3,8c0,0.1-0.2,0.2-0.3,0.2h-11l-1-8.1h5.1c0.2,0,0.3-0.1,0.3-0.3
	c0-0.2-0.1-0.3-0.3-0.3H3.5V5h2.7c0.2,0,0.3-0.1,0.3-0.3c0-0.3-0.1-0.4-0.3-0.4H3.4L3.1,1.4c0-0.5-0.5-0.9-1-0.9H0.8
	c-0.2,0-0.3,0.1-0.3,0.3s0.1,0.3,0.3,0.3h1.3c0.2,0,0.3,0.1,0.3,0.3L4.2,17c0.1,0.5,0.5,0.9,1,0.9h0.4c0.2,1,1.1,1.7,2.2,1.5
	c0.8-0.1,1.4-0.8,1.5-1.5h2c0.2,1,1.1,1.7,2.2,1.5c1-0.2,1.7-1.1,1.5-2.2c-0.2-1-1.1-1.7-2.2-1.5c-0.8,0.1-1.4,0.8-1.5,1.5H9.3
	c-0.2-0.9-1.1-1.7-2.2-1.5c-0.8,0.1-1.4,0.8-1.5,1.5H5.2c-0.2,0-0.3-0.1-0.3-0.3L4.7,15h10.9c0.4,0,0.8-0.3,1-0.7l2.3-8.2
	c0.4-0.2,0.7-0.6,0.7-1l0,0C19.5,4.7,19.1,4.3,18.5,4.3z M13.1,16.4c0.7,0,1.2,0.6,1.2,1.2c0,0.7-0.6,1.2-1.2,1.2s-1.2-0.6-1.2-1.2
	S12.5,16.4,13.1,16.4z M7.4,16.4c0.7,0,1.2,0.6,1.2,1.2c0,0.7-0.6,1.2-1.2,1.2s-1.2-0.6-1.2-1.2C6.2,16.9,6.8,16.4,7.4,16.4z"/>
</svg>
