<?xml version="1.0" encoding="utf-8"?>
<!-- Generator: Adobe Illustrator 22.0.1, SVG Export Plug-In . SVG Version: 6.00 Build 0)  -->
<svg version="1.1" id="Layer_1" xmlns="http://www.w3.org/2000/svg" xmlns:xlink="http://www.w3.org/1999/xlink" x="0px" y="0px"
	 viewBox="0 0 20 20" style="enable-background:new 0 0 20 20;" xml:space="preserve">
<style type="text/css">
	.st0{fill:#7D7053;stroke:#7D7053;stroke-width:0.25;}
</style>
<path class="st0" d="M10.9,10L10.9,10c-0.1,0.1-0.1,0.3-0.1,0.4l0,0l0,0c0,0.1,0,0.1,0,0.1c0,0.9-0.7,1.6-1.6,1.6
	c-0.9,0-1.6-0.7-1.6-1.6C7.5,9.7,8.2,9,9.1,9l0,0l0,0c0.2,0,0.3,0,0.4-0.1V8.8l0.1,0.1c0.1-0.1,0.2-0.2,0.2-0.4V2.6
	c0-0.3-0.2-0.5-0.5-0.5c-2.7,0-5,0.9-6.6,2.4s-2.5,3.7-2.5,6.3c0,4.8,3.8,8.5,8.6,8.5c2.6,0,4.7-0.9,6.2-2.5s2.4-3.8,2.4-6.5
	c0-0.3-0.2-0.5-0.5-0.5h-5.8C11.1,9.8,10.9,9.9,10.9,10z M11.2,0.5c-0.3,0-0.5,0.2-0.5,0.5v7.8c0,0.3,0.2,0.5,0.5,0.5h8.1
	c0.3,0,0.5-0.2,0.5-0.5c0-2.6-0.8-4.6-2.3-6.1C16,1.3,13.8,0.5,11.2,0.5z M11.7,8.3V1.5c2.2,0.1,3.9,0.7,5.1,1.9
	c1.2,1.1,1.9,2.8,2,4.9H11.7z M8.9,18.4c-4.3,0-7.6-3.2-7.6-7.5c0-2.3,0.8-4.2,2.1-5.5C4.7,4,6.5,3.2,8.8,3.1V8
	c-1.3,0.2-2.2,1.3-2.2,2.6c0,1.5,1.2,2.6,2.6,2.6s2.5-1,2.6-2.4h4.7c-0.1,2.3-0.9,4.1-2.2,5.4C13,17.6,11.1,18.4,8.9,18.4z"/>
</svg>
