<?xml version="1.0" encoding="utf-8"?>
<!-- Generator: Adobe Illustrator 22.0.1, SVG Export Plug-In . SVG Version: 6.00 Build 0)  -->
<svg version="1.1" id="Layer_1" xmlns="http://www.w3.org/2000/svg" xmlns:xlink="http://www.w3.org/1999/xlink" x="0px" y="0px"
	 viewBox="0 0 15 15" style="enable-background:new 0 0 15 15;" xml:space="preserve">
<style type="text/css">
	.st0{fill:#8893A3;}
</style>
<path class="st0" d="M10.7,9.4H10L9.8,9.2c0.8-0.9,1.3-2.2,1.3-3.5c0-3-2.5-5.4-5.6-5.4S0,2.6,0,5.6c0,3,2.5,5.4,5.6,5.4
	c1.4,0,2.7-0.5,3.6-1.3L9.4,10v0.7l4.3,4.1l1.3-1.2L10.7,9.4z M5.6,9.4c-2.1,0-3.9-1.7-3.9-3.7s1.7-3.7,3.9-3.7s3.9,1.7,3.9,3.7
	S7.7,9.4,5.6,9.4z"/>
</svg>
