<?xml version="1.0" encoding="utf-8"?>
<!-- Generator: Adobe Illustrator 22.0.1, SVG Export Plug-In . SVG Version: 6.00 Build 0)  -->
<svg version="1.1" id="Layer_1" xmlns="http://www.w3.org/2000/svg" xmlns:xlink="http://www.w3.org/1999/xlink" x="0px" y="0px"
	 viewBox="0 0 20 20" style="enable-background:new 0 0 20 20;" xml:space="preserve">
<style type="text/css">
	.st0{fill:#8893A3;stroke:#8893A3;stroke-width:0.75;}
</style>
<path class="st0" d="M18,16.7H2c-0.8,0-1.5-0.7-1.5-1.5V4.7c0-0.8,0.7-1.5,1.5-1.5H18c0.8,0,1.5,0.7,1.5,1.5v10.4
	C19.5,16,18.8,16.7,18,16.7z M2,3.8c-0.5,0-0.9,0.4-0.9,0.9v10.4c0,0.5,0.4,0.9,0.9,0.9H18c0.5,0,0.9-0.4,0.9-0.9V4.7
	c0-0.5-0.4-0.9-0.9-0.9H2z"/>
<path class="st0" d="M10,11.5c-0.4,0-0.8-0.1-1.1-0.4L1,4.3C0.9,4.2,0.9,4,1,3.8c0.1-0.1,0.3-0.1,0.4,0l7.8,6.8
	c0.4,0.3,1.1,0.3,1.4,0l7.8-6.8c0.1-0.1,0.3-0.1,0.4,0c0.1,0.1,0.1,0.3,0,0.4l-7.8,6.8C10.8,11.4,10.4,11.5,10,11.5z"/>
</svg>
