<?xml version="1.0" encoding="utf-8"?>
<!-- Generator: Adobe Illustrator 22.0.1, SVG Export Plug-In . SVG Version: 6.00 Build 0)  -->
<svg version="1.1" id="Layer_1" xmlns="http://www.w3.org/2000/svg" xmlns:xlink="http://www.w3.org/1999/xlink" x="0px" y="0px"
	 viewBox="0 0 20 20" style="enable-background:new 0 0 20 20;" xml:space="preserve">
<style type="text/css">
	.st0{fill:#8893A3;}
</style>
<path class="st0" d="M4.3,8.1c-1.1,0-1.9,0.9-1.9,1.9c0,1.1,0.9,1.9,1.9,1.9s1.9-0.9,1.9-1.9C6.2,8.9,5.3,8.1,4.3,8.1z M15.8,8.1
	c-1.1,0-1.9,0.9-1.9,1.9c0,1.1,0.9,1.9,1.9,1.9c1.1,0,1.9-0.9,1.9-1.9C17.7,8.9,16.8,8.1,15.8,8.1z M10,8.1c-1.1,0-1.9,0.9-1.9,1.9
	c0,1.1,0.9,1.9,1.9,1.9c1.1,0,1.9-0.9,1.9-1.9C11.9,8.9,11.1,8.1,10,8.1z"/>
</svg>
