<?xml version="1.0" encoding="utf-8"?>
<!-- Generator: Adobe Illustrator 22.0.1, SVG Export Plug-In . SVG Version: 6.00 Build 0)  -->
<svg version="1.1" id="Capa_1" xmlns="http://www.w3.org/2000/svg" xmlns:xlink="http://www.w3.org/1999/xlink" x="0px" y="0px"
	 viewBox="0 0 20 20" style="enable-background:new 0 0 20 20;" xml:space="preserve">
<style type="text/css">
	.st0{fill:#8893A3;}
</style>
<g>
	<g>
		<path class="st0" d="M19,7.9l-1.4-0.2c-0.1-0.5-0.3-0.9-0.6-1.4l0.8-1.2c0.4-0.5,0.3-1.2-0.1-1.6l-1.2-1.2
			c-0.2-0.2-0.5-0.4-0.9-0.4c-0.3,0-0.5,0.1-0.7,0.2L13.7,3c-0.5-0.2-0.9-0.4-1.4-0.6L12.1,1c-0.1-0.6-0.6-1-1.2-1H9.1
			C8.5,0,8,0.4,7.9,1L7.6,2.5C7.2,2.6,6.7,2.8,6.3,3L5.1,2.2C4.9,2,4.7,2,4.4,2C4.1,2,3.8,2.1,3.5,2.3L2.3,3.6
			C1.8,4,1.8,4.7,2.1,5.2L3,6.3C2.7,6.8,2.6,7.2,2.4,7.7L1,7.9C0.4,8,0,8.6,0,9.2v1.8c0,0.6,0.4,1.1,1,1.2l1.4,0.2
			c0.1,0.5,0.3,0.9,0.6,1.4l-0.8,1.1c-0.4,0.5-0.3,1.2,0.1,1.6l1.2,1.2c0.2,0.2,0.5,0.4,0.9,0.4c0.3,0,0.5-0.1,0.7-0.2L6.3,17
			c0.4,0.2,0.9,0.4,1.3,0.5L7.9,19c0.1,0.6,0.6,1,1.2,1h1.8c0.6,0,1.1-0.4,1.2-1l0.2-1.4c0.5-0.1,0.9-0.3,1.4-0.6l1.2,0.8
			c0.2,0.2,0.5,0.2,0.7,0.2l0,0c0.3,0,0.6-0.1,0.9-0.4l1.2-1.2c0.4-0.4,0.5-1.1,0.1-1.6L17,13.7c0.2-0.4,0.4-0.9,0.6-1.4l1.4-0.2
			c0.6-0.1,1-0.6,1-1.2V9.1C20,8.5,19.6,8,19,7.9z M18.9,10.9c0,0.1,0,0.1-0.1,0.1L17,11.3c-0.2,0-0.4,0.2-0.5,0.4
			c-0.2,0.6-0.4,1.2-0.7,1.8c-0.1,0.2-0.1,0.4,0,0.6l1,1.5c0,0,0,0.1,0,0.1l-1.2,1.2c0,0-0.1,0-0.1,0c0,0,0,0-0.1,0l-1.4-1
			c-0.2-0.1-0.4-0.1-0.6,0c-0.5,0.3-1.1,0.6-1.8,0.7c-0.2,0.1-0.4,0.2-0.4,0.5L11,18.8c0,0.1-0.1,0.1-0.1,0.1H9.1
			c-0.1,0-0.1,0-0.1-0.1L8.7,17c0-0.2-0.2-0.4-0.4-0.5c-0.6-0.2-1.2-0.4-1.7-0.7c-0.1-0.1-0.2-0.1-0.3-0.1c-0.1,0-0.2,0-0.3,0.1
			l-1.5,1c0,0,0,0-0.1,0c0,0-0.1,0-0.1,0l-1.2-1.2c0,0,0-0.1,0-0.1l1-1.4c0.1-0.2,0.1-0.4,0-0.6c-0.3-0.5-0.6-1.1-0.7-1.7
			c-0.1-0.2-0.2-0.4-0.5-0.4L1.2,11c-0.1,0-0.1-0.1-0.1-0.1V9.2c0-0.1,0-0.1,0.1-0.1L3,8.8c0.2,0,0.4-0.2,0.5-0.4
			c0.2-0.6,0.4-1.2,0.7-1.8c0.1-0.2,0.1-0.4,0-0.6l-1-1.5c0,0,0-0.1,0-0.1l1.2-1.2c0,0,0.1,0,0.1,0c0,0,0,0,0.1,0l1.4,1
			c0.2,0.1,0.4,0.1,0.6,0c0.5-0.3,1.1-0.6,1.7-0.7C8.5,3.4,8.6,3.2,8.7,3L9,1.2C9,1.2,9,1.1,9.1,1.1h1.8c0.1,0,0.1,0,0.1,0.1L11.3,3
			c0,0.2,0.2,0.4,0.4,0.5c0.6,0.2,1.2,0.4,1.8,0.7c0.2,0.1,0.4,0.1,0.6,0l1.4-1c0,0,0,0,0.1,0c0,0,0.1,0,0.1,0l1.2,1.2
			c0,0,0,0.1,0,0.1l-1,1.4c-0.1,0.2-0.1,0.4,0,0.6c0.3,0.5,0.6,1.1,0.7,1.8c0.1,0.2,0.2,0.4,0.5,0.4L18.8,9c0.1,0,0.1,0.1,0.1,0.1
			L18.9,10.9L18.9,10.9z"/>
		<path class="st0" d="M10,5.7c-2.4,0-4.3,1.9-4.3,4.3s1.9,4.3,4.3,4.3s4.3-1.9,4.3-4.3S12.4,5.7,10,5.7z M10,13.2
			c-1.8,0-3.2-1.4-3.2-3.2S8.2,6.8,10,6.8s3.2,1.4,3.2,3.2S11.8,13.2,10,13.2z"/>
	</g>
</g>
</svg>
