<?xml version="1.0" encoding="utf-8"?>
<!-- Generator: Adobe Illustrator 22.0.1, SVG Export Plug-In . SVG Version: 6.00 Build 0)  -->
<svg version="1.1" id="Layer_1" xmlns="http://www.w3.org/2000/svg" xmlns:xlink="http://www.w3.org/1999/xlink" x="0px" y="0px"
	 viewBox="0 0 20 20" style="enable-background:new 0 0 20 20;" xml:space="preserve">
<style type="text/css">
	.st0{fill:#A41B10;stroke:#A41B10;stroke-width:0.25;}
</style>
<path class="st0" d="M15.8,16.2l3.8-4.6l0,0c0.2-0.3,0.2-0.7,0-1l0,0L15.8,6c-0.1-0.1-0.1-0.1-0.1-0.1c-0.2-0.2-0.4-0.3-0.6-0.3
	l-13.3,0C1.4,5.6,1.1,5.7,1,5.9C0.8,6.1,0.8,6.3,0.8,6.5l0,9.2c0,0.3,0.1,0.5,0.3,0.6c0.2,0.2,0.4,0.3,0.6,0.3l13.3,0
	C15.3,16.6,15.5,16.5,15.8,16.2z M14.9,15.9l-13.2,0c-0.1,0-0.2-0.1-0.2-0.2l0-9.2c0,0,0-0.1,0.1-0.2c0.1-0.1,0.1-0.1,0.2-0.1
	l13.2,0.1c0,0,0.1,0,0.2,0.1l0,0l0,0L19,11c0.1,0.1,0,0.1,0,0.3l-3.8,4.6l0,0C15.1,15.8,15.1,15.9,14.9,15.9z"/>
<path class="st0" d="M16.6,10c-0.3-0.3-0.7-0.5-1.2-0.5c-0.9,0-1.7,0.8-1.7,1.7c0,0.4,0.2,0.8,0.5,1.2s0.7,0.5,1.2,0.5
	c0.9,0,1.7-0.8,1.7-1.7C17.1,10.7,16.9,10.3,16.6,10z M15.4,12.1c-0.3,0-0.5-0.1-0.6-0.3c-0.2-0.2-0.3-0.4-0.3-0.6c0-0.5,0.5-1,1-1
	c0.3,0,0.5,0.1,0.6,0.3c0.2,0.2,0.3,0.4,0.3,0.6C16.4,11.6,15.9,12.1,15.4,12.1z"/>
</svg>
