<?xml version="1.0" encoding="utf-8"?>
<!-- Generator: Adobe Illustrator 22.0.1, SVG Export Plug-In . SVG Version: 6.00 Build 0)  -->
<svg version="1.1" id="Layer_1" xmlns="http://www.w3.org/2000/svg" xmlns:xlink="http://www.w3.org/1999/xlink" x="0px" y="0px"
	 viewBox="0 0 8 12" style="enable-background:new 0 0 8 12;" xml:space="preserve">
<style type="text/css">
	.st0{fill:#435166;}
</style>
<path class="st0" d="M7.5,6.6c0,0.1,0,0.1,0,0.2l-3.1,5.2c0,0-0.1,0.1-0.1,0.1c0,0,0,0,0,0c0,0-0.1,0-0.1-0.1L0.5,6.7
	c0,0,0-0.1,0-0.2c0-0.1,0.1-0.1,0.1-0.1h6.7C7.4,6.5,7.4,6.5,7.5,6.6z M0.7,5.5h6.7c0,0,0,0,0,0c0.1,0,0.2-0.1,0.2-0.2
	c0-0.1,0-0.1-0.1-0.1L3.9,0.1C3.9,0,3.8,0,3.8,0C3.7,0,3.7,0,3.7,0.1L0.5,5.3c0,0,0,0.1,0,0.2C0.5,5.5,0.6,5.5,0.7,5.5z"/>
</svg>
