<?xml version="1.0" encoding="utf-8"?>
<!-- Generator: Adobe Illustrator 22.0.1, SVG Export Plug-In . SVG Version: 6.00 Build 0)  -->
<svg version="1.1" id="Layer_1" xmlns="http://www.w3.org/2000/svg" xmlns:xlink="http://www.w3.org/1999/xlink" x="0px" y="0px"
	 viewBox="0 0 20 20" style="enable-background:new 0 0 20 20;" xml:space="preserve">
<style type="text/css">
	.st0{fill:#FFFFFF;stroke:#FFFFFF;stroke-width:0.5;}
</style>
<path class="st0" d="M10,0.5c-5.2,0-9.5,4.3-9.5,9.5c0,5.2,4.3,9.5,9.5,9.5c5.2,0,9.5-4.3,9.5-9.5C19.5,4.8,15.2,0.5,10,0.5z
	 M10,18.8c-4.9,0-8.8-4-8.8-8.8s4-8.8,8.8-8.8c4.9,0,8.8,4,8.8,8.8S14.9,18.8,10,18.8z"/>
<path class="st0" d="M5.6,6.3h8.8c0.2,0,0.3-0.2,0.3-0.3c0-0.2-0.2-0.3-0.3-0.3H5.6c-0.2,0-0.3,0.2-0.3,0.3C5.3,6.1,5.4,6.3,5.6,6.3
	z"/>
<path class="st0" d="M15.8,11H4.2c-0.2,0-0.3,0.2-0.3,0.3c0,0.2,0.2,0.3,0.3,0.3h11.5c0.2,0,0.3-0.2,0.3-0.3
	C16.1,11.2,16,11,15.8,11z"/>
<path class="st0" d="M15.8,8.3H4.2C4,8.3,3.9,8.5,3.9,8.6C3.9,8.8,4,9,4.2,9h11.5c0.2,0,0.3-0.2,0.3-0.3C16.1,8.5,16,8.3,15.8,8.3z"
	/>
<path class="st0" d="M14.4,13.7H5.6c-0.2,0-0.3,0.2-0.3,0.3c0,0.2,0.2,0.3,0.3,0.3h8.8c0.2,0,0.3-0.2,0.3-0.3
	C14.8,13.9,14.6,13.7,14.4,13.7z"/>
</svg>
