<?xml version="1.0" encoding="utf-8"?>
<!-- Generator: Adobe Illustrator 22.0.1, SVG Export Plug-In . SVG Version: 6.00 Build 0)  -->
<svg version="1.1" id="Layer_1" xmlns="http://www.w3.org/2000/svg" xmlns:xlink="http://www.w3.org/1999/xlink" x="0px" y="0px"
	 viewBox="0 0 20 20" style="enable-background:new 0 0 20 20;" xml:space="preserve">
<style type="text/css">
	.st0{fill:#7D7053;stroke:#7D7053;stroke-width:0.5;}
</style>
<path class="st0" d="M17.5,9.6c-0.8,0-1.5-0.4-1.9-1.1c-0.4,0.6-1.1,1.1-1.9,1.1c-0.8,0-1.5-0.4-1.9-1.1c-0.4,0.6-1.1,1.1-1.9,1.1
	C9.1,9.6,8.4,9.2,8,8.5C7.7,9.2,7,9.6,6.2,9.6S4.7,9.2,4.3,8.5C4,9.2,3.3,9.6,2.5,9.6c-1.2,0-2.2-1-2.2-2.2V4.5V4.4l1.4-3.6
	c0-0.1,0.2-0.2,0.3-0.2h16c0.1,0,0.2,0.1,0.3,0.2l1.4,3.6v0.1v2.9C19.7,8.6,18.7,9.6,17.5,9.6z M15.7,7.1c0.2,0,0.3,0.1,0.3,0.3
	C16,8.3,16.7,9,17.6,9s1.6-0.7,1.6-1.6V4.6l-1.3-3.3H2.2L0.9,4.6v2.8C0.9,8.3,1.6,9,2.5,9s1.6-0.7,1.6-1.6c0-0.2,0.1-0.3,0.3-0.3
	c0.2,0,0.3,0.1,0.3,0.3C4.6,8.3,5.4,9,6.2,9c0.9,0,1.6-0.7,1.6-1.6c0-0.2,0.1-0.3,0.3-0.3s0.3,0.1,0.3,0.3C8.4,8.3,9.1,9,10,9
	s1.6-0.7,1.6-1.6c0-0.2,0.1-0.3,0.3-0.3s0.3,0.1,0.3,0.3c0,0.9,0.7,1.6,1.6,1.6s1.6-0.7,1.6-1.6C15.4,7.3,15.5,7.1,15.7,7.1z"/>
<path class="st0" d="M17,19.3H3c-0.7,0-1.3-0.6-1.3-1.3v-6.2c0-0.2,0.1-0.3,0.3-0.3s0.3,0.1,0.3,0.3V18c0,0.4,0.3,0.7,0.7,0.7h14
	c0.4,0,0.7-0.3,0.7-0.7v-6.2c0-0.2,0.1-0.3,0.3-0.3c0.2,0,0.3,0.1,0.3,0.3V18C18.3,18.8,17.7,19.3,17,19.3z"/>
<path class="st0" d="M12.1,19.2H7.9c-0.2,0-0.3-0.1-0.3-0.3v-7.3c0-0.2,0.1-0.3,0.3-0.3h4.3c0.2,0,0.3,0.1,0.3,0.3v7.3
	C12.4,19.1,12.3,19.2,12.1,19.2z M8.2,18.6h3.7v-6.7H8.2V18.6z"/>
<path class="st0" d="M12.5,15.8h-5c-0.2,0-0.3-0.1-0.3-0.3v-3.9c0-0.2,0.1-0.3,0.3-0.3h5c0.2,0,0.3,0.1,0.3,0.3v3.9
	C12.8,15.7,12.7,15.8,12.5,15.8z M7.8,15.2h4.5v-3.3H7.8V15.2z"/>
</svg>
