<?xml version="1.0" encoding="utf-8"?>
<!-- Generator: Adobe Illustrator 23.0.6, SVG Export Plug-In . SVG Version: 6.00 Build 0)  -->
<svg version="1.1" id="Layer_1" xmlns="http://www.w3.org/2000/svg" xmlns:xlink="http://www.w3.org/1999/xlink" x="0px" y="0px"
	 viewBox="0 0 18 15.5" style="enable-background:new 0 0 18 15.5;" xml:space="preserve">
<style type="text/css">
	.st0{fill:#DF4A37;}
</style>
<g>
	<path class="st0" d="M17.8,13L10.4,0.8C10.1,0.3,9.6,0,9,0S7.9,0.3,7.6,0.8L0.2,13c-0.3,0.5-0.3,1.1,0,1.6c0.3,0.5,0.8,0.8,1.4,0.8
		h14.8c0.6,0,1.1-0.3,1.4-0.8C18.1,14.1,18.1,13.5,17.8,13z M16.8,14.1c-0.1,0.1-0.2,0.2-0.4,0.2H1.6c-0.2,0-0.3-0.1-0.4-0.2
		c-0.1-0.1-0.1-0.3,0-0.4L8.6,1.4C8.7,1.3,8.8,1.2,9,1.2s0.3,0.1,0.4,0.2l7.4,12.2C16.8,13.8,16.8,13.9,16.8,14.1z"/>
	<path class="st0" d="M9,10.4c0.3,0,0.6-0.1,0.6-0.5c0-1.3,0.2-3.2,0.2-4.4c0-0.4-0.4-0.7-0.8-0.7c-0.4,0-0.8,0.2-0.8,0.7
		c0,1.3,0.2,3.2,0.2,4.4C8.4,10.3,8.7,10.4,9,10.4z"/>
	<path class="st0" d="M9,11.2c-0.5,0-0.8,0.4-0.8,0.8c0,0.4,0.4,0.8,0.8,0.8c0.4,0,0.8-0.4,0.8-0.8C9.8,11.5,9.5,11.2,9,11.2z"/>
</g>
</svg>
