<?xml version="1.0" encoding="utf-8"?>
<!-- Generator: Adobe Illustrator 22.0.1, SVG Export Plug-In . SVG Version: 6.00 Build 0)  -->
<svg version="1.1" id="Layer_1" xmlns="http://www.w3.org/2000/svg" xmlns:xlink="http://www.w3.org/1999/xlink" x="0px" y="0px"
	 viewBox="0 0 20 20" style="enable-background:new 0 0 20 20;" xml:space="preserve">
<style type="text/css">
	.st0{fill:#8893A3;stroke:#8893A3;stroke-width:0.5;}
</style>
<path class="st0" d="M10,0.5c-5.2,0-9.5,4.3-9.5,9.5c0,2.6,1,5.1,2.9,6.9c1.8,1.7,4.1,2.6,6.6,2.6c2.4,0,4.8-0.9,6.6-2.6
	c1.9-1.8,2.9-4.3,2.9-6.9C19.5,4.8,15.2,0.5,10,0.5z M10,1.2c4.8,0,8.8,3.9,8.8,8.8c0,2.1-0.7,4.1-2.1,5.7c-0.1-0.4-0.3-0.7-0.6-0.9
	l-3.7-2.2c-0.2-0.1-0.3-0.3-0.3-0.5v-0.1c0-0.2,0.1-0.4,0.3-0.5c1-0.7,1.7-1.9,1.7-3.2V6c0-1.5-1-2.7-2.7-3.1
	c-0.8-0.2-1.6-0.2-2.5,0C7,3.3,6.1,4.5,6.1,6v2.2c0,1.3,0.6,2.5,1.7,3.2C7.9,11.5,8,11.7,8,11.9v0.1c0,0.2-0.1,0.4-0.3,0.5L4,14.7
	c-0.4,0.2-0.6,0.6-0.7,1C2,14.1,1.2,12.1,1.2,10C1.2,5.2,5.2,1.2,10,1.2z M9.2,18.7c-0.1,0-0.2,0-0.3,0c-0.2,0-0.4,0-0.5-0.1
	c-0.1,0-0.2-0.1-0.3-0.1c-0.2,0-0.3-0.1-0.5-0.1c-0.1,0-0.2-0.1-0.3-0.1c-0.1,0-0.3-0.1-0.4-0.2c-0.1,0-0.2-0.1-0.3-0.1
	c-0.1-0.1-0.3-0.1-0.4-0.2c-0.1-0.1-0.2-0.1-0.3-0.2c-0.1-0.1-0.3-0.1-0.4-0.2c-0.1-0.1-0.2-0.1-0.3-0.2c-0.1-0.1-0.2-0.2-0.4-0.3
	c-0.1-0.1-0.2-0.2-0.3-0.2c-0.1-0.1-0.2-0.2-0.3-0.2l0-0.5c0-0.2,0.1-0.4,0.3-0.5L8,13.3c0.4-0.2,0.7-0.7,0.7-1.2v-0.1
	c0-0.4-0.2-0.9-0.6-1.1c-0.8-0.6-1.3-1.6-1.3-2.6V6C6.8,4.5,8,3.9,9,3.6c0.7-0.2,1.4-0.2,2.1,0c1,0.3,2.2,0.9,2.2,2.4v2.2
	c0,1-0.5,2-1.3,2.6c-0.4,0.3-0.6,0.7-0.6,1.1v0.1c0,0.5,0.3,0.9,0.7,1.2l3.7,2.2c0.2,0.1,0.3,0.3,0.3,0.6v0.5
	c-0.1,0.1-0.2,0.2-0.3,0.2c-0.1,0.1-0.2,0.2-0.3,0.2c-0.1,0.1-0.2,0.2-0.4,0.3c-0.1,0.1-0.2,0.1-0.3,0.2c-0.1,0.1-0.3,0.2-0.4,0.2
	c-0.1,0.1-0.2,0.1-0.3,0.2c-0.1,0.1-0.3,0.1-0.4,0.2c-0.1,0.1-0.2,0.1-0.3,0.1c-0.1,0.1-0.3,0.1-0.4,0.2c-0.1,0-0.2,0.1-0.3,0.1
	c-0.2,0-0.3,0.1-0.5,0.1c-0.1,0-0.2,0.1-0.3,0.1c-0.2,0-0.4,0.1-0.5,0.1c-0.1,0-0.2,0-0.3,0c-0.3,0-0.6,0-0.8,0
	C9.7,18.8,9.4,18.7,9.2,18.7z"/>
</svg>
