<?xml version="1.0" encoding="utf-8"?>
<!-- Generator: Adobe Illustrator 22.0.1, SVG Export Plug-In . SVG Version: 6.00 Build 0)  -->
<svg version="1.1" id="Capa_1" xmlns="http://www.w3.org/2000/svg" xmlns:xlink="http://www.w3.org/1999/xlink" x="0px" y="0px"
	 viewBox="0 0 20 20" style="enable-background:new 0 0 20 20;" xml:space="preserve">
<style type="text/css">
	.st0{fill:#856404;}
</style>
<g>
	<g>
		<path class="st0" d="M17,0H3C1.4,0,0,1.4,0,3v9.6c0,1.7,1.4,3,3,3h9.4l4.2,4.2C16.7,20,16.8,20,17,20c0.1,0,0.1,0,0.2,0
			c0.2-0.1,0.3-0.2,0.3-0.4v-3.9c1.5-0.2,2.6-1.5,2.6-3V3C20,1.4,18.6,0,17,0z M19.1,12.6c0,1.2-1,2.2-2.2,2.2
			c-0.2,0-0.4,0.2-0.4,0.4v3.3l-3.6-3.6c-0.1-0.1-0.2-0.1-0.3-0.1H3c-1.2,0-2.2-1-2.2-2.2V3c0-1.2,1-2.2,2.2-2.2H17
			c1.2,0,2.2,1,2.2,2.2V12.6z"/>
	</g>
</g>
<g>
	<g>
		<path class="st0" d="M10,10.4c-0.7,0-1.3,0.6-1.3,1.3c0,0.7,0.6,1.3,1.3,1.3s1.3-0.6,1.3-1.3C11.3,11,10.7,10.4,10,10.4z M10,12.2
			c-0.2,0-0.4-0.2-0.4-0.4c0-0.2,0.2-0.4,0.4-0.4s0.4,0.2,0.4,0.4C10.4,12,10.2,12.2,10,12.2z"/>
	</g>
</g>
<g>
	<g>
		<path class="st0" d="M11.4,3c-0.2-0.3-0.6-0.4-1-0.4H9.6c-0.4,0-0.7,0.2-1,0.4C8.4,3.3,8.2,3.6,8.3,4l0.4,4.3
			C8.7,9,9.3,9.6,10,9.6c0.7,0,1.3-0.6,1.4-1.3L11.7,4C11.8,3.6,11.6,3.3,11.4,3z M10.9,3.9l-0.4,4.3c0,0.3-0.2,0.5-0.5,0.5
			c-0.3,0-0.5-0.2-0.5-0.5L9.1,3.9c0-0.1,0-0.2,0.1-0.3c0.1-0.1,0.2-0.1,0.3-0.1h0.9c0.1,0,0.2,0,0.3,0.1
			C10.8,3.7,10.9,3.8,10.9,3.9z"/>
	</g>
</g>
</svg>
