<svg width="21" height="21" viewBox="0 0 21 21" fill="none" xmlns="http://www.w3.org/2000/svg">
<g clip-path="url(#clip0)">
<path d="M19.5454 1.4198H1.45462C0.652585 1.4198 0 2.07238 0 2.87442V15.1479C0 15.95 0.652585 16.6026 1.45462 16.6026H12.0036L11.6851 18.5451C11.6252 18.9108 11.7461 19.242 12.0087 19.431C12.2712 19.62 12.6235 19.6302 12.9514 19.4574L15.2273 18.2594C15.2908 18.2268 15.4658 18.2268 15.5293 18.2594L17.8052 19.4574C17.9609 19.5393 18.1222 19.5801 18.2767 19.5801C18.4476 19.5801 18.6102 19.5302 18.748 19.4309C19.0105 19.2419 19.1314 18.9106 19.0716 18.5449L18.7531 16.6025H19.5455C20.3475 16.6025 21.0001 15.9499 21.0001 15.1479V2.87442C21 2.0723 20.3474 1.4198 19.5454 1.4198ZM15.3783 14.1093C13.9805 14.1093 12.8431 12.9719 12.8431 11.5741C12.8431 10.1762 13.9805 9.03886 15.3783 9.03886C16.7762 9.03886 17.9135 10.1762 17.9135 11.5741C17.9135 12.9719 16.7762 14.1093 15.3783 14.1093ZM16.1101 17.1561C15.6861 16.9329 15.0705 16.9329 14.6466 17.1561L13.0376 18.0031L13.5491 14.8828C14.0916 15.1839 14.7152 15.356 15.3784 15.356C16.0417 15.356 16.6651 15.1838 17.2078 14.8828L17.4071 16.0993C17.4076 16.1013 17.4077 16.1034 17.4082 16.1054L17.7193 18.0032L16.1101 17.1561ZM19.7532 15.1479C19.7532 15.2606 19.658 15.3557 19.5454 15.3557H18.5487L18.321 13.9669C18.3201 13.9614 18.3186 13.9561 18.3175 13.9507C18.8441 13.3008 19.1604 12.4738 19.1604 11.5741C19.1604 9.48863 17.4639 7.79204 15.3784 7.79204C13.293 7.79204 11.5964 9.48863 11.5964 11.5741C11.5964 12.4738 11.9128 13.3007 12.4393 13.9507C12.4383 13.9561 12.4368 13.9614 12.4359 13.9668L12.208 15.3568C12.201 15.3566 12.1943 15.3557 12.1873 15.3557H1.45462C1.34199 15.3557 1.24682 15.2606 1.24682 15.1479V2.87442C1.24682 2.76179 1.34199 2.66662 1.45462 2.66662H19.5454C19.658 2.66662 19.7532 2.76179 19.7532 2.87442V15.1479Z" fill="#8893A3"/>
<path d="M17.3407 5.00745H3.21008C2.86571 5.00745 2.58667 5.28648 2.58667 5.63086C2.58667 5.97523 2.86571 6.25427 3.21008 6.25427H17.3407C17.6851 6.25427 17.9641 5.97523 17.9641 5.63086C17.9641 5.28648 17.6851 5.00745 17.3407 5.00745Z" fill="#8893A3"/>
<path d="M9.19481 8.38782H3.21008C2.86571 8.38782 2.58667 8.66686 2.58667 9.01123C2.58667 9.3556 2.86571 9.63464 3.21008 9.63464H9.19481C9.53918 9.63464 9.81822 9.3556 9.81822 9.01123C9.81822 8.66686 9.53918 8.38782 9.19481 8.38782Z" fill="#8893A3"/>
</g>
<defs>
<clipPath id="clip0">
<rect width="21" height="21" fill="white"/>
</clipPath>
</defs>
</svg>
