<svg width="22" height="21" viewBox="0 0 22 21" fill="none" xmlns="http://www.w3.org/2000/svg">
<path d="M18.7281 3.59311H15.3559L15.1912 2.55077L15.1905 2.54623C15.0416 1.65196 14.2846 0.998547 13.3994 1H8.68914C7.80399 0.998547 7.04716 1.65196 6.89824 2.54623L6.89736 2.55077L6.73282 3.59311H3.2719C2.01774 3.59457 1.00142 4.63618 1 5.92154V17.6716C1.00142 18.9569 2.01774 19.9985 3.2719 20H18.7281C19.9823 19.9985 20.9986 18.9569 21 17.6716V5.92154C20.9986 4.63618 19.9823 3.59457 18.7281 3.59311ZM7.79405 2.70212C7.86948 2.25608 8.24754 1.93065 8.68914 1.93137H13.3994C13.8412 1.93065 14.2193 2.25626 14.2945 2.7023L14.4355 3.59311H7.6533L7.79405 2.70212ZM3.2719 4.52448H18.7281C19.4807 4.52521 20.0904 5.15025 20.0912 5.92154V7.65167L13.7484 11.0297V10.2059C13.7484 9.94864 13.545 9.74017 13.294 9.74017H8.7502C8.4994 9.74017 8.29582 9.94864 8.29582 10.2059V11.0275L1.90876 7.60511V5.92154C1.90965 5.15025 2.51933 4.52521 3.2719 4.52448ZM12.8396 10.6715V12.6833C12.8389 13.4544 12.229 14.0794 11.4765 14.0803H10.5677C9.81533 14.0794 9.20546 13.4544 9.20458 12.6833V10.6715H12.8396ZM18.7281 19.0686H3.2719C2.51933 19.0679 1.90965 18.4429 1.90876 17.6716V8.65599L8.29582 12.0788V12.6833C8.29724 13.9686 9.31356 15.0102 10.5677 15.0117H11.4765C12.7306 15.0102 13.747 13.9686 13.7484 12.6833V12.0793L20.0912 8.70129V17.6716C20.0904 18.4429 19.4807 19.0679 18.7281 19.0686Z" fill="#2F3D57" stroke="#2F3D57" stroke-width="0.3"/>
</svg>
